<svg data-name="Logos Text" xmlns="http://www.w3.org/2000/svg" viewBox="0 0 234 60">
  <rect width="234" height="60" rx="4" ry="4" fill="#dc0046"/>
  <g fill="#fff">
    <path d="M171.72 14.5c0-1.62 1.31-2.93 2.93-2.93 1.11 0 2.08.62 2.58 1.54h1.32c-.57-1.6-2.1-2.76-3.9-2.76-.9 0-1.73.29-2.41.77s-1.12.82-2.32 1.86c-.46.4-.95.82-1.37 1.19-.66.58.02 1.03.02 1.03h3.24c-.06-.23-.09-.46-.09-.71Zm8.81-.76h-3.06c.07.24.1.5.1.76 0 1.62-1.31 2.93-2.93 2.93-1.14 0-2.12-.65-2.6-1.6h-1.31a4.142 4.142 0 0 0 6.41 1.98s1.12-.83 2.32-1.86c.57-.49 1.16-1.01 1.63-1.42.53-.46-.56-.79-.56-.79Z"/>
    <path d="M180.9 16.11v.62c0 .46.17.76.52.89s1.08.19 2.18.19c.68 0 1.16-.09 1.44-.26.28-.18.41-.53.41-1.06v-.25c0-.7-.37-1.06-1.11-1.08l-.33-.02-1.95-.11c-1.59-.08-2.38-.81-2.38-2.2 0-.97.24-1.62.71-1.94.48-.32 1.42-.48 2.84-.48 1.17 0 2.01.13 2.51.39s.76.77.78 1.53v.29h-1.29v-.28c0-.37-.11-.62-.32-.74-.21-.12-.64-.18-1.3-.18h-.75c-.79 0-1.3.08-1.54.24-.24.16-.36.46-.36.91v.37c0 .62.32.95.96 1l2.11.15.55.03c1.44.09 2.16.81 2.16 2.18v.18c0 .78-.22 1.37-.65 1.76-.43.39-1.35.59-2.77.59s-2.33-.15-2.88-.44c-.55-.29-.82-.8-.82-1.52v-.75h1.29ZM187.23 10.49h1.11V8.53h1.25v1.96h3.2v1.01h-3.2v5.2c0 .44.08.73.23.88.16.15.45.22.88.22.48 0 .81-.08.99-.25.18-.17.28-.51.28-1v-.81h1.19v.66c0 1.61-.8 2.41-2.41 2.41-1.01 0-1.66-.17-1.96-.52-.3-.35-.45-.98-.45-1.88v-4.92h-1.11v-1.01ZM193.67 10.49h1.11V8.53h1.25v1.96h3.2v1.01h-3.2v5.2c0 .44.08.73.23.88.16.15.45.22.88.22.48 0 .81-.08.99-.25.18-.17.28-.51.28-1v-.81h1.19v.66c0 1.61-.8 2.41-2.41 2.41-1.01 0-1.66-.17-1.96-.52-.3-.35-.45-.98-.45-1.88v-4.92h-1.11v-1.01ZM201.64 14.88v.76c0 .81.13 1.37.39 1.7.26.32.84.48 1.73.48h.32c.95 0 1.56-.09 1.81-.26s.38-.61.38-1.32h1.29v.24c0 .9-.26 1.52-.77 1.86-.51.33-1.37.49-2.6.49-1.53 0-2.55-.26-3.06-.78-.51-.52-.76-1.62-.76-3.29s.24-2.89.72-3.47c.48-.58 1.46-.87 2.96-.87 1.38 0 2.31.25 2.79.74s.72 1.42.72 2.81v.92h-5.91Zm0-1.01h4.62c-.04-.96-.16-1.61-.37-1.94-.21-.34-.8-.51-1.78-.51s-1.67.13-1.97.39c-.3.26-.47.94-.51 2.06ZM214.51 15.75h1.25v.47c0 1.05-.29 1.75-.88 2.09-.58.34-1.43.51-2.56.51-1.62 0-2.65-.29-3.1-.88-.45-.59-.67-1.69-.67-3.29 0-1.71.25-2.84.75-3.4s1.47-.84 2.89-.84c1.26 0 2.14.2 2.65.6.51.4.77 1.06.77 1.98v.25h-1.25v-.29c0-.61-.14-1.01-.41-1.23-.27-.21-.87-.32-1.81-.32-1.07 0-1.73.2-1.97.61-.24.4-.35 1.32-.35 2.77s.17 2.28.5 2.57c.33.3 1.02.45 2.06.45.89 0 1.47-.11 1.72-.32.26-.22.39-.8.39-1.74ZM216.58 6.92h1.25v4.59c.32-.74 1.18-1.11 2.58-1.11 1.15 0 1.95.22 2.4.65.45.44.68 1.17.68 2.21v5.47h-1.25v-5.49c0-.73-.14-1.22-.42-1.46-.27-.25-.77-.37-1.5-.37-.94 0-1.59.16-1.95.47-.36.31-.55.99-.55 2.04v4.8h-1.25V6.92ZM162.5 6.92h1.25v4.59c.32-.74 1.18-1.11 2.58-1.11 1.15 0 1.95.22 2.4.65.45.44.68 1.17.68 2.21v5.47h-1.25v-5.49c0-.73-.14-1.22-.42-1.46-.27-.25-.77-.37-1.5-.37-.94 0-1.59.16-1.95.47-.36.31-.55.99-.55 2.04v4.8h-1.25V6.92Z"/>
  </g>
  <g fill="#fff">
    <path d="M69.2 24.2s1.38 1.26 2.91 1.26c.61 0 1.27-.24 1.27-.97 0-1.44-5.47-1.39-5.47-5.13 0-2.24 1.89-3.72 4.3-3.72 2.62 0 3.91 1.38 3.91 1.38l-1.26 2.43s-1.22-1.07-2.69-1.07c-.61 0-1.29.27-1.29.95 0 1.53 5.47 1.26 5.47 5.1 0 2.02-1.55 3.77-4.28 3.77s-4.44-1.73-4.44-1.73l1.56-2.26ZM82.25 19.03c2.38 0 3.48 1.33 3.48 1.33l-1.24 1.97s-.85-.85-2.06-.85c-1.39 0-2.09 1.05-2.09 2.09s.71 2.18 2.19 2.18c1.22 0 2.4-1.05 2.4-1.05L86 26.76s-1.31 1.44-3.76 1.44c-3.13 0-4.88-2.18-4.88-4.59s1.73-4.57 4.88-4.57ZM87.22 15.84h2.94v3.84c0 .44-.03.75-.03.75h.03c.49-.87 1.51-1.39 2.67-1.39 1.77 0 3.14.82 3.14 3.28V28h-2.94v-5.13c0-.82-.32-1.16-.97-1.16-.9 0-1.5.53-1.75 1.29-.12.34-.15.71-.15 1.12V28h-2.94V15.85ZM96.9 19.24h3.09l1.09 5.17c.1.48.1.92.1.92h.03s.03-.44.15-.92l1.21-5.17h2.52l1.21 5.17c.12.48.14.92.14.92h.03s.02-.44.12-.92l1.09-5.17h3.06l-2.45 8.75h-3.28l-.99-4.05c-.12-.48-.17-.94-.17-.94h-.03s-.05.46-.17.94l-.99 4.05h-3.31l-2.45-8.75ZM115.72 19.03c2.58 0 4.05 1.8 4.05 4.23 0 .29-.07.92-.07.92h-5.52c.22 1.07 1.1 1.56 2.04 1.56 1.26 0 2.41-.88 2.41-.88l1.09 2.06s-1.41 1.27-3.74 1.27c-3.13 0-4.81-2.26-4.81-4.59 0-2.57 1.73-4.57 4.56-4.57Zm1.09 3.47c0-.66-.46-1.26-1.16-1.26-.85 0-1.26.61-1.41 1.26h2.57ZM121.34 19.24h2.94v8.75h-2.94v-8.75Zm.03-3.4h2.87v2.29h-2.87v-2.29ZM125.85 26.53l3.21-4.03c.44-.54.77-.8.77-.8v-.03s-.22.03-.77.03h-3.08v-2.46h7.82v1.48l-3.2 4.03c-.42.53-.78.8-.78.8v.03s.22-.05.78-.05h3.28v2.46h-8.04v-1.46ZM139.3 19.03c2.58 0 4.05 1.8 4.05 4.23 0 .29-.07.92-.07.92h-5.52c.22 1.07 1.1 1.56 2.04 1.56 1.26 0 2.41-.88 2.41-.88l1.09 2.06s-1.41 1.27-3.74 1.27c-3.13 0-4.81-2.26-4.81-4.59 0-2.57 1.73-4.57 4.56-4.57Zm1.09 3.47c0-.66-.46-1.26-1.16-1.26-.85 0-1.26.61-1.41 1.26h2.57ZM144.92 19.24h2.82v1.48c0 .29-.03.54-.03.54h.03c.37-1.19 1.48-2.18 2.79-2.18.17 0 .34.03.34.03V22s-.24-.05-.59-.05c-.7 0-1.84.22-2.26 1.53-.1.32-.15.71-.15 1.19v3.31h-2.94v-8.75ZM69.2 44.6s1.38 1.26 2.91 1.26c.61 0 1.27-.24 1.27-.97 0-1.44-5.47-1.39-5.47-5.13 0-2.24 1.89-3.72 4.3-3.72 2.62 0 3.91 1.38 3.91 1.38l-1.26 2.43s-1.22-1.07-2.69-1.07c-.61 0-1.29.27-1.29.95 0 1.53 5.47 1.26 5.47 5.1 0 2.02-1.55 3.77-4.28 3.77s-4.44-1.73-4.44-1.73l1.56-2.26ZM81.94 39.43c2.58 0 4.05 1.8 4.05 4.23 0 .29-.07.92-.07.92H80.4c.22 1.07 1.1 1.56 2.04 1.56 1.26 0 2.41-.88 2.41-.88l1.09 2.06s-1.41 1.27-3.74 1.27c-3.13 0-4.81-2.26-4.81-4.59 0-2.57 1.73-4.57 4.56-4.57Zm1.09 3.47c0-.66-.46-1.26-1.16-1.26-.85 0-1.26.61-1.41 1.26h2.57ZM87.56 39.64h2.82v1.48c0 .29-.03.54-.03.54h.03c.37-1.19 1.48-2.18 2.79-2.18.17 0 .34.03.34.03v2.89s-.24-.05-.59-.05c-.7 0-1.84.22-2.26 1.53-.1.32-.15.71-.15 1.19v3.31h-2.94v-8.75ZM94.04 39.64h3.09l1.36 4.66c.17.56.32 1.51.32 1.51h.03s.15-.94.32-1.51l1.34-4.66h3.11l-2.98 8.75h-3.59l-3.03-8.75ZM108.31 39.43c2.58 0 4.05 1.8 4.05 4.23 0 .29-.07.92-.07.92h-5.52c.22 1.07 1.1 1.56 2.04 1.56 1.26 0 2.41-.88 2.41-.88l1.09 2.06s-1.41 1.27-3.74 1.27c-3.13 0-4.81-2.26-4.81-4.59 0-2.57 1.73-4.57 4.56-4.57Zm1.09 3.47c0-.66-.46-1.26-1.16-1.26-.85 0-1.26.61-1.41 1.26h2.57ZM113.93 39.64h2.82v1.48c0 .29-.03.54-.03.54h.03c.37-1.19 1.48-2.18 2.79-2.18.17 0 .34.03.34.03v2.89s-.24-.05-.59-.05c-.7 0-1.84.22-2.26 1.53-.1.32-.15.71-.15 1.19v3.31h-2.94v-8.75ZM121.75 45.33s.97.88 2.23.88c.44 0 .87-.12.87-.41 0-.77-4.1-.85-4.1-3.71 0-1.65 1.58-2.67 3.6-2.67s3.08 1 3.08 1l-1 2.09s-.85-.71-2.07-.71c-.44 0-.87.12-.87.42 0 .66 4.1.76 4.1 3.59 0 1.5-1.33 2.77-3.59 2.77s-3.5-1.29-3.5-1.29l1.26-1.97ZM129.5 42.09h-1.12V39.8h1.21v-2.52h2.86v2.52h1.84v2.29h-1.84v2.69c0 .99 1 1.12 1.56 1.12.24 0 .39-.02.39-.02v2.55s-.32.05-.8.05c-1.39 0-4.1-.37-4.1-3.31v-3.08ZM140.48 42.94h.12v-.15c0-.73-.56-.97-1.29-.97-1.1 0-2.36.83-2.36.83l-1.02-2.07s1.51-1.14 3.67-1.14c2.46 0 3.94 1.34 3.94 3.57v5.39h-2.69v-.53c0-.29.03-.54.03-.54h-.03s-.65 1.27-2.48 1.27c-1.63 0-2.98-1.09-2.98-2.82 0-2.55 3.72-2.84 5.08-2.84Zm-1.29 3.42c.77 0 1.45-.83 1.45-1.55v-.19h-.27c-.94 0-2.01.27-2.01 1 0 .41.25.73.83.73ZM145.48 39.64h2.82v.76c0 .29-.03.54-.03.54h.03c.41-.68 1.24-1.51 2.79-1.51 1.77 0 3.14.82 3.14 3.28v5.68h-2.94v-5.13c0-.82-.32-1.16-.97-1.16-.92 0-1.48.51-1.73 1.26-.12.34-.17.73-.17 1.16v3.88h-2.94v-8.75ZM159.67 39.43c1.77 0 2.29.7 2.29.7h.03s-.02-.17-.02-.39v-3.5h2.94v12.15h-2.75v-.58c0-.27.02-.49.02-.49h-.03s-.73 1.27-2.53 1.27c-2.38 0-3.94-1.87-3.94-4.59s1.67-4.57 3.99-4.57Zm.68 6.73c.88 0 1.72-.65 1.72-2.16 0-1.05-.56-2.09-1.72-2.09-.92 0-1.72.75-1.72 2.09s.7 2.16 1.72 2.16ZM171.34 39.43c2.77 0 4.98 1.85 4.98 4.61s-2.21 4.56-4.96 4.56-4.96-1.82-4.96-4.56 2.21-4.61 4.95-4.61Zm.02 6.71c1.07 0 1.99-.8 1.99-2.11s-.92-2.16-1.99-2.16-1.99.83-1.99 2.16.92 2.11 1.99 2.11ZM177.76 39.64h2.82v1.48c0 .29-.03.54-.03.54h.03c.37-1.19 1.48-2.18 2.79-2.18.17 0 .34.03.34.03v2.89s-.24-.05-.59-.05c-.7 0-1.84.22-2.26 1.53-.1.32-.15.71-.15 1.19v3.31h-2.94v-8.75ZM185.57 42.09h-1.12V39.8h1.21v-2.52h2.86v2.52h1.84v2.29h-1.84v2.69c0 .99 1 1.12 1.56 1.12.24 0 .39-.02.39-.02v2.55s-.32.05-.8.05c-1.39 0-4.1-.37-4.1-3.31v-3.08Z"/>
  </g>
  <g fill="#fff">
    <path d="M21.83 49.5c-1.33 0-2.66-.32-3.85-.93-.7-.37-1.33-.82-1.89-1.35a7.552 7.552 0 0 1-2.42-5.54V18.39c0-2.09.89-4.1 2.4-5.52a8.272 8.272 0 0 1 5.79-2.36h24.67c2.14 0 4.18.81 5.75 2.27.18.16.36.36.51.54 0 0 .06.07.06.08.08.09.19.22.29.36l.08.11c.06.08.11.17.15.27l.17.26.09.14c.28.5.49.97.65 1.46l.26 1.08c.09.43.14.86.15 1.29v23.34a7 7 0 0 1 0 .65c-.07.69-.21 1.34-.44 1.96-.07.2-.15.4-.25.59-.07.16-.17.36-.28.55-.09.16-.21.35-.34.54-.4.62-.94 1.19-1.57 1.67-.12.1-.29.24-.48.37a8.1 8.1 0 0 1-.7.42l-.19.1c-.17.1-.37.19-.58.28-.19.09-.44.18-.68.25-.3.09-.6.17-.91.24-.59.12-1.17.17-1.75.17H21.81Zm24.7-36.95H21.86c-1.64 0-3.2.64-4.38 1.79a5.646 5.646 0 0 0-1.77 4.05v23.29c0 1.53.64 3 1.77 4.04.43.41.91.76 1.43 1.03.89.46 1.9.71 2.94.69h24.67c.45 0 .9-.04 1.34-.13.23-.05.48-.11.72-.19.17-.05.34-.12.5-.19.16-.06.27-.12.38-.18l.21-.11c.17-.09.34-.2.51-.31.12-.08.23-.17.34-.26.5-.38.88-.79 1.18-1.25.11-.15.17-.25.23-.37.09-.16.16-.29.22-.42.08-.16.13-.28.18-.41.17-.47.28-.95.33-1.43V18.4c-.01-.3-.05-.6-.11-.9l-.22-.93c-.1-.31-.25-.66-.43-.98l-.07-.11c-.07-.11-.14-.22-.21-.32a.94.94 0 0 1-.12-.22c-.05-.07-.1-.14-.16-.2-.01-.01-.08-.09-.09-.11-.1-.11-.22-.24-.34-.36a6.35 6.35 0 0 0-4.35-1.72Z"/>
    <path d="M36.51 44.37h-4.6c-.99 0-1.8-.81-1.8-1.8v-8.45h-8.49c-.99 0-1.8-.81-1.8-1.8v-4.63c0-.99.81-1.8 1.8-1.8h8.49v-8.47c0-.99.81-1.8 1.8-1.8h4.6c.99 0 1.8.81 1.8 1.8v8.47h.63c.57 0 1.03.46 1.03 1.03s-.46 1.03-1.03 1.03h-1.65c-.57 0-1.03-.46-1.03-1.03v-9.24h-4.09v9.24c0 .57-.46 1.03-1.03 1.03h-9.26v4.12h9.26c.57 0 1.03.46 1.03 1.03v9.22h4.09V33.1c0-.57.46-1.03 1.03-1.03h9.24v-4.12h-.46c-.57 0-1.03-.46-1.03-1.03s.46-1.03 1.03-1.03h.71c.99 0 1.8.81 1.8 1.8v4.63c0 .99-.81 1.8-1.8 1.8h-8.47v8.45c0 .99-.81 1.8-1.8 1.8Zm10.26-16.42Z"/>
    <circle cx="42.57" cy="26.9" r="1.03"/>
  </g>
</svg>
