<?xml version="1.0" encoding="UTF-8" standalone="no"?>
<!DOCTYPE svg PUBLIC "-//W3C//DTD SVG 1.1//EN"
 "http://www.w3.org/Graphics/SVG/1.1/DTD/svg11.dtd">
<!-- Generated by graphviz version 2.40.1 (20161225.0304)
 -->
<!-- Title: dependencies Pages: 1 -->
<svg width="2224pt" height="284pt"
 viewBox="0.00 0.00 2224.00 284.00" xmlns="http://www.w3.org/2000/svg" xmlns:xlink="http://www.w3.org/1999/xlink">
<g id="graph0" class="graph" transform="scale(1 1) rotate(0) translate(4 280)">
<title>dependencies</title>
<polygon fill="#ffffff" stroke="transparent" points="-4,4 -4,-280 2220,-280 2220,4 -4,4"/>
<text text-anchor="start" x="1087.0091" y="-42.4" font-family="sans-serif" font-weight="bold" font-size="14.00" fill="#000000">Legend</text>
<polygon fill="#ffffb3" stroke="transparent" points="874,-10 874,-30 894,-30 894,-10 874,-10"/>
<text text-anchor="start" x="897.629" y="-15.4" font-family="sans-serif" font-size="14.00" fill="#000000"> &#160;Declarations</text>
<polygon fill="#8dd3c7" stroke="transparent" points="987,-10 987,-30 1007,-30 1007,-10 987,-10"/>
<text text-anchor="start" x="1010.7251" y="-15.4" font-family="sans-serif" font-size="14.00" fill="#000000"> &#160;Module</text>
<polygon fill="#80b1d3" stroke="transparent" points="1073,-10 1073,-30 1093,-30 1093,-10 1073,-10"/>
<text text-anchor="start" x="1096.7812" y="-15.4" font-family="sans-serif" font-size="14.00" fill="#000000"> &#160;Bootstrap</text>
<polygon fill="#fdb462" stroke="transparent" points="1170,-10 1170,-30 1190,-30 1190,-10 1170,-10"/>
<text text-anchor="start" x="1193.6732" y="-15.4" font-family="sans-serif" font-size="14.00" fill="#000000"> &#160;Providers</text>
<polygon fill="#fb8072" stroke="transparent" points="1266,-10 1266,-30 1286,-30 1286,-10 1266,-10"/>
<text text-anchor="start" x="1289.7258" y="-15.4" font-family="sans-serif" font-size="14.00" fill="#000000"> &#160;Exports</text>
<g id="clust1" class="cluster">
<title>cluster_CoreModule</title>
<polygon fill="none" stroke="#000000" stroke-dasharray="1,5" points="8,-70 8,-268 2208,-268 2208,-70 8,-70"/>
</g>
<g id="clust2" class="cluster">
<title>cluster_CoreModule_declarations</title>
<polygon fill="none" stroke="#000000" points="2070,-78 2070,-130 2200,-130 2200,-78 2070,-78"/>
</g>
<g id="clust5" class="cluster">
<title>cluster_CoreModule_exports</title>
<polygon fill="none" stroke="#000000" points="1073,-208 1073,-260 1205,-260 1205,-208 1073,-208"/>
</g>
<g id="clust7" class="cluster">
<title>cluster_CoreModule_providers</title>
<polygon fill="none" stroke="#000000" points="16,-78 16,-130 2062,-130 2062,-78 16,-78"/>
</g>
<!-- SecuredDirective -->
<g id="node1" class="node">
<title>SecuredDirective</title>
<polygon fill="#ffffb3" stroke="#000000" points="2191.6699,-122 2078.3301,-122 2078.3301,-86 2191.6699,-86 2191.6699,-122"/>
<text text-anchor="middle" x="2135" y="-99.8" font-family="Times,serif" font-size="14.00" fill="#000000">SecuredDirective</text>
</g>
<!-- CoreModule -->
<g id="node2" class="node">
<title>CoreModule</title>
<polygon fill="#8dd3c7" stroke="#000000" points="1182.2619,-187 1179.2619,-191 1158.2619,-191 1155.2619,-187 1095.7381,-187 1095.7381,-151 1182.2619,-151 1182.2619,-187"/>
<text text-anchor="middle" x="1139" y="-164.8" font-family="Times,serif" font-size="14.00" fill="#000000">CoreModule</text>
</g>
<!-- SecuredDirective&#45;&gt;CoreModule -->
<g id="edge1" class="edge">
<title>SecuredDirective&#45;&gt;CoreModule</title>
<path fill="none" stroke="#000000" d="M2135,-122.0109C2135,-144.4852 2135,-180 2135,-180 2135,-180 1192.4373,-180 1192.4373,-180"/>
<polygon fill="#000000" stroke="#000000" points="1192.4374,-176.5001 1182.4373,-180 1192.4373,-183.5001 1192.4374,-176.5001"/>
</g>
<!-- SecuredDirective  -->
<g id="node3" class="node">
<title>SecuredDirective </title>
<polygon fill="#fb8072" stroke="#000000" points="1197.1703,-252 1080.8297,-252 1080.8297,-216 1197.1703,-216 1197.1703,-252"/>
<text text-anchor="middle" x="1139" y="-229.8" font-family="Times,serif" font-size="14.00" fill="#000000">SecuredDirective </text>
</g>
<!-- CoreModule&#45;&gt;SecuredDirective  -->
<g id="edge2" class="edge">
<title>CoreModule&#45;&gt;SecuredDirective </title>
<path fill="none" stroke="#000000" stroke-dasharray="5,2" d="M1139,-187.1061C1139,-187.1061 1139,-205.991 1139,-205.991"/>
<polygon fill="#000000" stroke="#000000" points="1135.5001,-205.9909 1139,-215.991 1142.5001,-205.991 1135.5001,-205.9909"/>
</g>
<!-- DefaultErrorHandler -->
<g id="node4" class="node">
<title>DefaultErrorHandler</title>
<ellipse fill="#fdb462" stroke="#000000" cx="1963" cy="-104" rx="91.4288" ry="18"/>
<text text-anchor="middle" x="1963" y="-99.8" font-family="Times,serif" font-size="14.00" fill="#000000">DefaultErrorHandler</text>
</g>
<!-- DefaultErrorHandler&#45;&gt;CoreModule -->
<g id="edge3" class="edge">
<title>DefaultErrorHandler&#45;&gt;CoreModule</title>
<path fill="none" stroke="#000000" d="M1963,-122.1289C1963,-142.5724 1963,-173 1963,-173 1963,-173 1192.4304,-173 1192.4304,-173"/>
<polygon fill="#000000" stroke="#000000" points="1192.4305,-169.5001 1182.4304,-173 1192.4304,-176.5001 1192.4305,-169.5001"/>
</g>
<!-- ForbiddenErrorResponseHandler -->
<g id="node5" class="node">
<title>ForbiddenErrorResponseHandler</title>
<ellipse fill="#fdb462" stroke="#000000" cx="1714" cy="-104" rx="139.4305" ry="18"/>
<text text-anchor="middle" x="1714" y="-99.8" font-family="Times,serif" font-size="14.00" fill="#000000">ForbiddenErrorResponseHandler</text>
</g>
<!-- ForbiddenErrorResponseHandler&#45;&gt;CoreModule -->
<g id="edge4" class="edge">
<title>ForbiddenErrorResponseHandler&#45;&gt;CoreModule</title>
<path fill="none" stroke="#000000" d="M1714,-122.2667C1714,-140.5552 1714,-166 1714,-166 1714,-166 1192.6904,-166 1192.6904,-166"/>
<polygon fill="#000000" stroke="#000000" points="1192.6904,-162.5001 1182.6904,-166 1192.6904,-169.5001 1192.6904,-162.5001"/>
</g>
<!-- MethodNotAllowedErrorHandler -->
<g id="node6" class="node">
<title>MethodNotAllowedErrorHandler</title>
<ellipse fill="#fdb462" stroke="#000000" cx="1416" cy="-104" rx="140.0724" ry="18"/>
<text text-anchor="middle" x="1416" y="-99.8" font-family="Times,serif" font-size="14.00" fill="#000000">MethodNotAllowedErrorHandler</text>
</g>
<!-- MethodNotAllowedErrorHandler&#45;&gt;CoreModule -->
<g id="edge5" class="edge">
<title>MethodNotAllowedErrorHandler&#45;&gt;CoreModule</title>
<path fill="none" stroke="#000000" d="M1416,-122.0091C1416,-138.0494 1416,-159 1416,-159 1416,-159 1192.2813,-159 1192.2813,-159"/>
<polygon fill="#000000" stroke="#000000" points="1192.2813,-155.5001 1182.2813,-159 1192.2812,-162.5001 1192.2813,-155.5001"/>
</g>
<!-- NoConnectionErrorHandler -->
<g id="node7" class="node">
<title>NoConnectionErrorHandler</title>
<ellipse fill="#fdb462" stroke="#000000" cx="1139" cy="-104" rx="118.6645" ry="18"/>
<text text-anchor="middle" x="1139" y="-99.8" font-family="Times,serif" font-size="14.00" fill="#000000">NoConnectionErrorHandler</text>
</g>
<!-- NoConnectionErrorHandler&#45;&gt;CoreModule -->
<g id="edge6" class="edge">
<title>NoConnectionErrorHandler&#45;&gt;CoreModule</title>
<path fill="none" stroke="#000000" d="M1139,-122.1061C1139,-122.1061 1139,-140.991 1139,-140.991"/>
<polygon fill="#000000" stroke="#000000" points="1135.5001,-140.9909 1139,-150.991 1142.5001,-140.991 1135.5001,-140.9909"/>
</g>
<!-- NotFoundErrorHandler -->
<g id="node8" class="node">
<title>NotFoundErrorHandler</title>
<ellipse fill="#fdb462" stroke="#000000" cx="900" cy="-104" rx="101.8496" ry="18"/>
<text text-anchor="middle" x="900" y="-99.8" font-family="Times,serif" font-size="14.00" fill="#000000">NotFoundErrorHandler</text>
</g>
<!-- NotFoundErrorHandler&#45;&gt;CoreModule -->
<g id="edge7" class="edge">
<title>NotFoundErrorHandler&#45;&gt;CoreModule</title>
<path fill="none" stroke="#000000" d="M900,-122.0091C900,-138.0494 900,-159 900,-159 900,-159 1085.7189,-159 1085.7189,-159"/>
<polygon fill="#000000" stroke="#000000" points="1085.7189,-162.5001 1095.7189,-159 1085.7189,-155.5001 1085.7189,-162.5001"/>
</g>
<!-- ServerSideErrorHandler -->
<g id="node9" class="node">
<title>ServerSideErrorHandler</title>
<ellipse fill="#fdb462" stroke="#000000" cx="675" cy="-104" rx="104.752" ry="18"/>
<text text-anchor="middle" x="675" y="-99.8" font-family="Times,serif" font-size="14.00" fill="#000000">ServerSideErrorHandler</text>
</g>
<!-- ServerSideErrorHandler&#45;&gt;CoreModule -->
<g id="edge8" class="edge">
<title>ServerSideErrorHandler&#45;&gt;CoreModule</title>
<path fill="none" stroke="#000000" d="M675,-122.2667C675,-140.5552 675,-166 675,-166 675,-166 1085.348,-166 1085.348,-166"/>
<polygon fill="#000000" stroke="#000000" points="1085.348,-169.5001 1095.348,-166 1085.348,-162.5001 1085.348,-169.5001"/>
</g>
<!-- UnauthorizedErrorResponseHandler -->
<g id="node10" class="node">
<title>UnauthorizedErrorResponseHandler</title>
<ellipse fill="#fdb462" stroke="#000000" cx="400" cy="-104" rx="152.1505" ry="18"/>
<text text-anchor="middle" x="400" y="-99.8" font-family="Times,serif" font-size="14.00" fill="#000000">UnauthorizedErrorResponseHandler</text>
</g>
<!-- UnauthorizedErrorResponseHandler&#45;&gt;CoreModule -->
<g id="edge9" class="edge">
<title>UnauthorizedErrorResponseHandler&#45;&gt;CoreModule</title>
<path fill="none" stroke="#000000" d="M400,-122.1289C400,-142.5724 400,-173 400,-173 400,-173 1085.5311,-173 1085.5311,-173"/>
<polygon fill="#000000" stroke="#000000" points="1085.5312,-176.5001 1095.5311,-173 1085.5311,-169.5001 1085.5312,-176.5001"/>
</g>
<!-- ValidationErrorHandler -->
<g id="node11" class="node">
<title>ValidationErrorHandler</title>
<ellipse fill="#fdb462" stroke="#000000" cx="127" cy="-104" rx="103.0482" ry="18"/>
<text text-anchor="middle" x="127" y="-99.8" font-family="Times,serif" font-size="14.00" fill="#000000">ValidationErrorHandler</text>
</g>
<!-- ValidationErrorHandler&#45;&gt;CoreModule -->
<g id="edge10" class="edge">
<title>ValidationErrorHandler&#45;&gt;CoreModule</title>
<path fill="none" stroke="#000000" d="M127,-122.0109C127,-144.4852 127,-180 127,-180 127,-180 1085.5156,-180 1085.5156,-180"/>
<polygon fill="#000000" stroke="#000000" points="1085.5157,-183.5001 1095.5156,-180 1085.5156,-176.5001 1085.5157,-183.5001"/>
</g>
</g>
</svg>
