<?xml version="1.0" encoding="UTF-8" standalone="no"?>
<!DOCTYPE svg PUBLIC "-//W3C//DTD SVG 1.1//EN"
 "http://www.w3.org/Graphics/SVG/1.1/DTD/svg11.dtd">
<!-- Generated by graphviz version 2.40.1 (20161225.0304)
 -->
<!-- Title: dependencies Pages: 1 -->
<svg width="1861pt" height="284pt"
 viewBox="0.00 0.00 1861.00 284.00" xmlns="http://www.w3.org/2000/svg" xmlns:xlink="http://www.w3.org/1999/xlink">
<g id="graph0" class="graph" transform="scale(1 1) rotate(0) translate(4 280)">
<title>dependencies</title>
<polygon fill="#ffffff" stroke="transparent" points="-4,4 -4,-280 1857,-280 1857,4 -4,4"/>
<text text-anchor="start" x="905.5091" y="-42.4" font-family="sans-serif" font-weight="bold" font-size="14.00" fill="#000000">Legend</text>
<polygon fill="#ffffb3" stroke="transparent" points="692.5,-10 692.5,-30 712.5,-30 712.5,-10 692.5,-10"/>
<text text-anchor="start" x="716.129" y="-15.4" font-family="sans-serif" font-size="14.00" fill="#000000"> &#160;Declarations</text>
<polygon fill="#8dd3c7" stroke="transparent" points="805.5,-10 805.5,-30 825.5,-30 825.5,-10 805.5,-10"/>
<text text-anchor="start" x="829.2251" y="-15.4" font-family="sans-serif" font-size="14.00" fill="#000000"> &#160;Module</text>
<polygon fill="#80b1d3" stroke="transparent" points="891.5,-10 891.5,-30 911.5,-30 911.5,-10 891.5,-10"/>
<text text-anchor="start" x="915.2812" y="-15.4" font-family="sans-serif" font-size="14.00" fill="#000000"> &#160;Bootstrap</text>
<polygon fill="#fdb462" stroke="transparent" points="988.5,-10 988.5,-30 1008.5,-30 1008.5,-10 988.5,-10"/>
<text text-anchor="start" x="1012.1732" y="-15.4" font-family="sans-serif" font-size="14.00" fill="#000000"> &#160;Providers</text>
<polygon fill="#fb8072" stroke="transparent" points="1084.5,-10 1084.5,-30 1104.5,-30 1104.5,-10 1084.5,-10"/>
<text text-anchor="start" x="1108.2258" y="-15.4" font-family="sans-serif" font-size="14.00" fill="#000000"> &#160;Exports</text>
<g id="clust1" class="cluster">
<title>cluster_CoreModule</title>
<polygon fill="none" stroke="#000000" stroke-dasharray="1,5" points="8,-70 8,-268 1845,-268 1845,-70 8,-70"/>
</g>
<g id="clust2" class="cluster">
<title>cluster_CoreModule_declarations</title>
<polygon fill="none" stroke="#000000" points="1707,-78 1707,-130 1837,-130 1837,-78 1707,-78"/>
</g>
<g id="clust5" class="cluster">
<title>cluster_CoreModule_exports</title>
<polygon fill="none" stroke="#000000" points="889,-208 889,-260 1021,-260 1021,-208 889,-208"/>
</g>
<g id="clust7" class="cluster">
<title>cluster_CoreModule_providers</title>
<polygon fill="none" stroke="#000000" points="16,-78 16,-130 1699,-130 1699,-78 16,-78"/>
</g>
<!-- SecuredDirective -->
<g id="node1" class="node">
<title>SecuredDirective</title>
<polygon fill="#ffffb3" stroke="#000000" points="1828.6699,-122 1715.3301,-122 1715.3301,-86 1828.6699,-86 1828.6699,-122"/>
<text text-anchor="middle" x="1772" y="-99.8" font-family="Times,serif" font-size="14.00" fill="#000000">SecuredDirective</text>
</g>
<!-- CoreModule -->
<g id="node2" class="node">
<title>CoreModule</title>
<polygon fill="#8dd3c7" stroke="#000000" points="998.2619,-187 995.2619,-191 974.2619,-191 971.2619,-187 911.7381,-187 911.7381,-151 998.2619,-151 998.2619,-187"/>
<text text-anchor="middle" x="955" y="-164.8" font-family="Times,serif" font-size="14.00" fill="#000000">CoreModule</text>
</g>
<!-- SecuredDirective&#45;&gt;CoreModule -->
<g id="edge1" class="edge">
<title>SecuredDirective&#45;&gt;CoreModule</title>
<path fill="none" stroke="#000000" d="M1772,-122.2921C1772,-144.2057 1772,-178 1772,-178 1772,-178 1008.3486,-178 1008.3486,-178"/>
<polygon fill="#000000" stroke="#000000" points="1008.3487,-174.5001 998.3486,-178 1008.3486,-181.5001 1008.3487,-174.5001"/>
</g>
<!-- SecuredDirective  -->
<g id="node3" class="node">
<title>SecuredDirective </title>
<polygon fill="#fb8072" stroke="#000000" points="1013.1703,-252 896.8297,-252 896.8297,-216 1013.1703,-216 1013.1703,-252"/>
<text text-anchor="middle" x="955" y="-229.8" font-family="Times,serif" font-size="14.00" fill="#000000">SecuredDirective </text>
</g>
<!-- CoreModule&#45;&gt;SecuredDirective  -->
<g id="edge2" class="edge">
<title>CoreModule&#45;&gt;SecuredDirective </title>
<path fill="none" stroke="#000000" stroke-dasharray="5,2" d="M955,-187.1061C955,-187.1061 955,-205.991 955,-205.991"/>
<polygon fill="#000000" stroke="#000000" points="951.5001,-205.9909 955,-215.991 958.5001,-205.991 951.5001,-205.9909"/>
</g>
<!-- AuthErrorResponseHandler -->
<g id="node4" class="node">
<title>AuthErrorResponseHandler</title>
<ellipse fill="#fdb462" stroke="#000000" cx="1572" cy="-104" rx="118.6626" ry="18"/>
<text text-anchor="middle" x="1572" y="-99.8" font-family="Times,serif" font-size="14.00" fill="#000000">AuthErrorResponseHandler</text>
</g>
<!-- AuthErrorResponseHandler&#45;&gt;CoreModule -->
<g id="edge3" class="edge">
<title>AuthErrorResponseHandler&#45;&gt;CoreModule</title>
<path fill="none" stroke="#000000" d="M1572,-122.1061C1572,-141.3391 1572,-169 1572,-169 1572,-169 1008.3862,-169 1008.3862,-169"/>
<polygon fill="#000000" stroke="#000000" points="1008.3863,-165.5001 998.3862,-169 1008.3862,-172.5001 1008.3863,-165.5001"/>
</g>
<!-- DefaultErrorHandler -->
<g id="node5" class="node">
<title>DefaultErrorHandler</title>
<ellipse fill="#fdb462" stroke="#000000" cx="1344" cy="-104" rx="91.4288" ry="18"/>
<text text-anchor="middle" x="1344" y="-99.8" font-family="Times,serif" font-size="14.00" fill="#000000">DefaultErrorHandler</text>
</g>
<!-- DefaultErrorHandler&#45;&gt;CoreModule -->
<g id="edge4" class="edge">
<title>DefaultErrorHandler&#45;&gt;CoreModule</title>
<path fill="none" stroke="#000000" d="M1344,-122.027C1344,-138.3976 1344,-160 1344,-160 1344,-160 1008.4909,-160 1008.4909,-160"/>
<polygon fill="#000000" stroke="#000000" points="1008.491,-156.5001 998.4909,-160 1008.4909,-163.5001 1008.491,-156.5001"/>
</g>
<!-- MethodNotAllowedErrorHandler -->
<g id="node6" class="node">
<title>MethodNotAllowedErrorHandler</title>
<ellipse fill="#fdb462" stroke="#000000" cx="1094" cy="-104" rx="140.0724" ry="18"/>
<text text-anchor="middle" x="1094" y="-99.8" font-family="Times,serif" font-size="14.00" fill="#000000">MethodNotAllowedErrorHandler</text>
</g>
<!-- MethodNotAllowedErrorHandler&#45;&gt;CoreModule -->
<g id="edge5" class="edge">
<title>MethodNotAllowedErrorHandler&#45;&gt;CoreModule</title>
<path fill="none" stroke="#000000" d="M976.0474,-113.8721C976.0474,-113.8721 976.0474,-140.9074 976.0474,-140.9074"/>
<polygon fill="#000000" stroke="#000000" points="972.5475,-140.9073 976.0474,-150.9074 979.5475,-140.9074 972.5475,-140.9073"/>
</g>
<!-- NoConnectionErrorHandler -->
<g id="node7" class="node">
<title>NoConnectionErrorHandler</title>
<ellipse fill="#fdb462" stroke="#000000" cx="817" cy="-104" rx="118.6645" ry="18"/>
<text text-anchor="middle" x="817" y="-99.8" font-family="Times,serif" font-size="14.00" fill="#000000">NoConnectionErrorHandler</text>
</g>
<!-- NoConnectionErrorHandler&#45;&gt;CoreModule -->
<g id="edge6" class="edge">
<title>NoConnectionErrorHandler&#45;&gt;CoreModule</title>
<path fill="none" stroke="#000000" d="M923.7257,-111.9703C923.7257,-111.9703 923.7257,-140.8723 923.7257,-140.8723"/>
<polygon fill="#000000" stroke="#000000" points="920.2258,-140.8722 923.7257,-150.8723 927.2258,-140.8723 920.2258,-140.8722"/>
</g>
<!-- NotFoundErrorHandler -->
<g id="node8" class="node">
<title>NotFoundErrorHandler</title>
<ellipse fill="#fdb462" stroke="#000000" cx="578" cy="-104" rx="101.8496" ry="18"/>
<text text-anchor="middle" x="578" y="-99.8" font-family="Times,serif" font-size="14.00" fill="#000000">NotFoundErrorHandler</text>
</g>
<!-- NotFoundErrorHandler&#45;&gt;CoreModule -->
<g id="edge7" class="edge">
<title>NotFoundErrorHandler&#45;&gt;CoreModule</title>
<path fill="none" stroke="#000000" d="M578,-122.027C578,-138.3976 578,-160 578,-160 578,-160 901.385,-160 901.385,-160"/>
<polygon fill="#000000" stroke="#000000" points="901.385,-163.5001 911.385,-160 901.385,-156.5001 901.385,-163.5001"/>
</g>
<!-- ServerSideErrorHandler -->
<g id="node9" class="node">
<title>ServerSideErrorHandler</title>
<ellipse fill="#fdb462" stroke="#000000" cx="353" cy="-104" rx="104.752" ry="18"/>
<text text-anchor="middle" x="353" y="-99.8" font-family="Times,serif" font-size="14.00" fill="#000000">ServerSideErrorHandler</text>
</g>
<!-- ServerSideErrorHandler&#45;&gt;CoreModule -->
<g id="edge8" class="edge">
<title>ServerSideErrorHandler&#45;&gt;CoreModule</title>
<path fill="none" stroke="#000000" d="M353,-122.1061C353,-141.3391 353,-169 353,-169 353,-169 901.7056,-169 901.7056,-169"/>
<polygon fill="#000000" stroke="#000000" points="901.7057,-172.5001 911.7056,-169 901.7056,-165.5001 901.7057,-172.5001"/>
</g>
<!-- ValidationErrorHandler -->
<g id="node10" class="node">
<title>ValidationErrorHandler</title>
<ellipse fill="#fdb462" stroke="#000000" cx="127" cy="-104" rx="103.0482" ry="18"/>
<text text-anchor="middle" x="127" y="-99.8" font-family="Times,serif" font-size="14.00" fill="#000000">ValidationErrorHandler</text>
</g>
<!-- ValidationErrorHandler&#45;&gt;CoreModule -->
<g id="edge9" class="edge">
<title>ValidationErrorHandler&#45;&gt;CoreModule</title>
<path fill="none" stroke="#000000" d="M127,-122.2921C127,-144.2057 127,-178 127,-178 127,-178 901.6489,-178 901.6489,-178"/>
<polygon fill="#000000" stroke="#000000" points="901.649,-181.5001 911.6489,-178 901.6489,-174.5001 901.649,-181.5001"/>
</g>
</g>
</svg>
