<?xml version="1.0" encoding="UTF-8" standalone="no"?>
<!DOCTYPE svg PUBLIC "-//W3C//DTD SVG 1.1//EN"
 "http://www.w3.org/Graphics/SVG/1.1/DTD/svg11.dtd">
<!-- Generated by graphviz version 2.40.1 (20161225.0304)
 -->
<!-- Title: dependencies Pages: 1 -->
<svg width="504pt" height="284pt"
 viewBox="0.00 0.00 504.00 284.00" xmlns="http://www.w3.org/2000/svg" xmlns:xlink="http://www.w3.org/1999/xlink">
<g id="graph0" class="graph" transform="scale(1 1) rotate(0) translate(4 280)">
<title>dependencies</title>
<polygon fill="#ffffff" stroke="transparent" points="-4,4 -4,-280 500,-280 500,4 -4,4"/>
<text text-anchor="start" x="227.0091" y="-42.4" font-family="sans-serif" font-weight="bold" font-size="14.00" fill="#000000">Legend</text>
<polygon fill="#ffffb3" stroke="transparent" points="14,-10 14,-30 34,-30 34,-10 14,-10"/>
<text text-anchor="start" x="37.629" y="-15.4" font-family="sans-serif" font-size="14.00" fill="#000000"> &#160;Declarations</text>
<polygon fill="#8dd3c7" stroke="transparent" points="127,-10 127,-30 147,-30 147,-10 127,-10"/>
<text text-anchor="start" x="150.7251" y="-15.4" font-family="sans-serif" font-size="14.00" fill="#000000"> &#160;Module</text>
<polygon fill="#80b1d3" stroke="transparent" points="213,-10 213,-30 233,-30 233,-10 213,-10"/>
<text text-anchor="start" x="236.7812" y="-15.4" font-family="sans-serif" font-size="14.00" fill="#000000"> &#160;Bootstrap</text>
<polygon fill="#fdb462" stroke="transparent" points="310,-10 310,-30 330,-30 330,-10 310,-10"/>
<text text-anchor="start" x="333.6732" y="-15.4" font-family="sans-serif" font-size="14.00" fill="#000000"> &#160;Providers</text>
<polygon fill="#fb8072" stroke="transparent" points="406,-10 406,-30 426,-30 426,-10 406,-10"/>
<text text-anchor="start" x="429.7258" y="-15.4" font-family="sans-serif" font-size="14.00" fill="#000000"> &#160;Exports</text>
<g id="clust1" class="cluster">
<title>cluster_HeaderModule</title>
<polygon fill="none" stroke="#000000" stroke-dasharray="1,5" points="15,-70 15,-268 481,-268 481,-70 15,-70"/>
</g>
<g id="clust2" class="cluster">
<title>cluster_HeaderModule_declarations</title>
<polygon fill="none" stroke="#000000" points="169,-78 169,-130 473,-130 473,-78 169,-78"/>
</g>
<g id="clust5" class="cluster">
<title>cluster_HeaderModule_imports</title>
<polygon fill="none" stroke="#000000" points="23,-78 23,-130 161,-130 161,-78 23,-78"/>
</g>
<g id="clust6" class="cluster">
<title>cluster_HeaderModule_exports</title>
<polygon fill="none" stroke="#000000" points="180,-208 180,-260 322,-260 322,-208 180,-208"/>
</g>
<!-- HeaderComponent -->
<g id="node1" class="node">
<title>HeaderComponent</title>
<polygon fill="#ffffb3" stroke="#000000" points="464.7437,-122 343.2563,-122 343.2563,-86 464.7437,-86 464.7437,-122"/>
<text text-anchor="middle" x="404" y="-99.8" font-family="Times,serif" font-size="14.00" fill="#000000">HeaderComponent</text>
</g>
<!-- HeaderModule -->
<g id="node3" class="node">
<title>HeaderModule</title>
<polygon fill="#8dd3c7" stroke="#000000" points="300.9608,-187 297.9608,-191 276.9608,-191 273.9608,-187 201.0392,-187 201.0392,-151 300.9608,-151 300.9608,-187"/>
<text text-anchor="middle" x="251" y="-164.8" font-family="Times,serif" font-size="14.00" fill="#000000">HeaderModule</text>
</g>
<!-- HeaderComponent&#45;&gt;HeaderModule -->
<g id="edge1" class="edge">
<title>HeaderComponent&#45;&gt;HeaderModule</title>
<path fill="none" stroke="#000000" d="M404,-122.1061C404,-141.3391 404,-169 404,-169 404,-169 311.0979,-169 311.0979,-169"/>
<polygon fill="#000000" stroke="#000000" points="311.098,-165.5001 301.0979,-169 311.0979,-172.5001 311.098,-165.5001"/>
</g>
<!-- HeaderTitleComponent -->
<g id="node2" class="node">
<title>HeaderTitleComponent</title>
<polygon fill="#ffffb3" stroke="#000000" points="325.1825,-122 176.8175,-122 176.8175,-86 325.1825,-86 325.1825,-122"/>
<text text-anchor="middle" x="251" y="-99.8" font-family="Times,serif" font-size="14.00" fill="#000000">HeaderTitleComponent</text>
</g>
<!-- HeaderTitleComponent&#45;&gt;HeaderModule -->
<g id="edge2" class="edge">
<title>HeaderTitleComponent&#45;&gt;HeaderModule</title>
<path fill="none" stroke="#000000" d="M267.6601,-122.1061C267.6601,-122.1061 267.6601,-140.991 267.6601,-140.991"/>
<polygon fill="#000000" stroke="#000000" points="264.1602,-140.9909 267.6601,-150.991 271.1602,-140.991 264.1602,-140.9909"/>
</g>
<!-- HeaderTitleComponent&#45;&gt;HeaderModule -->
<g id="edge3" class="edge">
<title>HeaderTitleComponent&#45;&gt;HeaderModule</title>
<path fill="none" stroke="#000000" d="M234.3399,-122.1061C234.3399,-122.1061 234.3399,-140.991 234.3399,-140.991"/>
<polygon fill="#000000" stroke="#000000" points="230.84,-140.9909 234.3399,-150.991 237.84,-140.991 230.84,-140.9909"/>
</g>
<!-- HeaderComponent  -->
<g id="node5" class="node">
<title>HeaderComponent </title>
<polygon fill="#fb8072" stroke="#000000" points="313.7436,-252 188.2564,-252 188.2564,-216 313.7436,-216 313.7436,-252"/>
<text text-anchor="middle" x="251" y="-229.8" font-family="Times,serif" font-size="14.00" fill="#000000">HeaderComponent </text>
</g>
<!-- HeaderModule&#45;&gt;HeaderComponent  -->
<g id="edge5" class="edge">
<title>HeaderModule&#45;&gt;HeaderComponent </title>
<path fill="none" stroke="#000000" stroke-dasharray="5,2" d="M251,-187.1061C251,-187.1061 251,-205.991 251,-205.991"/>
<polygon fill="#000000" stroke="#000000" points="247.5001,-205.9909 251,-215.991 254.5001,-205.991 247.5001,-205.9909"/>
</g>
<!-- NavigationModule -->
<g id="node4" class="node">
<title>NavigationModule</title>
<polygon fill="#8dd3c7" stroke="#000000" points="152.7576,-122 149.7576,-126 128.7576,-126 125.7576,-122 31.2424,-122 31.2424,-86 152.7576,-86 152.7576,-122"/>
<text text-anchor="middle" x="92" y="-99.8" font-family="Times,serif" font-size="14.00" fill="#000000">NavigationModule</text>
</g>
<!-- NavigationModule&#45;&gt;HeaderModule -->
<g id="edge4" class="edge">
<title>NavigationModule&#45;&gt;HeaderModule</title>
<path fill="none" stroke="#000000" d="M92,-122.1061C92,-141.3391 92,-169 92,-169 92,-169 190.6914,-169 190.6914,-169"/>
<polygon fill="#000000" stroke="#000000" points="190.6914,-172.5001 200.6914,-169 190.6914,-165.5001 190.6914,-172.5001"/>
</g>
</g>
</svg>
