<?xml version="1.0" encoding="UTF-8" standalone="no"?>
<!DOCTYPE svg PUBLIC "-//W3C//DTD SVG 1.1//EN"
 "http://www.w3.org/Graphics/SVG/1.1/DTD/svg11.dtd">
<!-- Generated by graphviz version 2.40.1 (20161225.0304)
 -->
<!-- Title: dependencies Pages: 1 -->
<svg width="676pt" height="284pt"
 viewBox="0.00 0.00 676.00 284.00" xmlns="http://www.w3.org/2000/svg" xmlns:xlink="http://www.w3.org/1999/xlink">
<g id="graph0" class="graph" transform="scale(1 1) rotate(0) translate(4 280)">
<title>dependencies</title>
<polygon fill="#ffffff" stroke="transparent" points="-4,4 -4,-280 672,-280 672,4 -4,4"/>
<text text-anchor="start" x="313.0091" y="-42.4" font-family="sans-serif" font-weight="bold" font-size="14.00" fill="#000000">Legend</text>
<polygon fill="#ffffb3" stroke="transparent" points="100,-10 100,-30 120,-30 120,-10 100,-10"/>
<text text-anchor="start" x="123.629" y="-15.4" font-family="sans-serif" font-size="14.00" fill="#000000"> &#160;Declarations</text>
<polygon fill="#8dd3c7" stroke="transparent" points="213,-10 213,-30 233,-30 233,-10 213,-10"/>
<text text-anchor="start" x="236.7251" y="-15.4" font-family="sans-serif" font-size="14.00" fill="#000000"> &#160;Module</text>
<polygon fill="#80b1d3" stroke="transparent" points="299,-10 299,-30 319,-30 319,-10 299,-10"/>
<text text-anchor="start" x="322.7812" y="-15.4" font-family="sans-serif" font-size="14.00" fill="#000000"> &#160;Bootstrap</text>
<polygon fill="#fdb462" stroke="transparent" points="396,-10 396,-30 416,-30 416,-10 396,-10"/>
<text text-anchor="start" x="419.6732" y="-15.4" font-family="sans-serif" font-size="14.00" fill="#000000"> &#160;Providers</text>
<polygon fill="#fb8072" stroke="transparent" points="492,-10 492,-30 512,-30 512,-10 492,-10"/>
<text text-anchor="start" x="515.7258" y="-15.4" font-family="sans-serif" font-size="14.00" fill="#000000"> &#160;Exports</text>
<g id="clust1" class="cluster">
<title>cluster_UsersettingsModule</title>
<polygon fill="none" stroke="#000000" stroke-dasharray="1,5" points="8,-70 8,-268 660,-268 660,-70 8,-70"/>
</g>
<g id="clust2" class="cluster">
<title>cluster_UsersettingsModule_declarations</title>
<polygon fill="none" stroke="#000000" points="132,-78 132,-130 652,-130 652,-78 132,-78"/>
</g>
<g id="clust6" class="cluster">
<title>cluster_UsersettingsModule_imports</title>
<polygon fill="none" stroke="#000000" points="16,-78 16,-130 124,-130 124,-78 16,-78"/>
</g>
<g id="clust7" class="cluster">
<title>cluster_UsersettingsModule_exports</title>
<polygon fill="none" stroke="#000000" points="212,-208 212,-260 382,-260 382,-208 212,-208"/>
</g>
<!-- UserDateFormatComponent -->
<g id="node1" class="node">
<title>UserDateFormatComponent</title>
<polygon fill="#ffffb3" stroke="#000000" points="644.1246,-122 469.8754,-122 469.8754,-86 644.1246,-86 644.1246,-122"/>
<text text-anchor="middle" x="557" y="-99.8" font-family="Times,serif" font-size="14.00" fill="#000000">UserDateFormatComponent</text>
</g>
<!-- UsersettingsModule -->
<g id="node4" class="node">
<title>UsersettingsModule</title>
<polygon fill="#8dd3c7" stroke="#000000" points="361.252,-187 358.252,-191 337.252,-191 334.252,-187 232.748,-187 232.748,-151 361.252,-151 361.252,-187"/>
<text text-anchor="middle" x="297" y="-164.8" font-family="Times,serif" font-size="14.00" fill="#000000">UsersettingsModule</text>
</g>
<!-- UserDateFormatComponent&#45;&gt;UsersettingsModule -->
<g id="edge1" class="edge">
<title>UserDateFormatComponent&#45;&gt;UsersettingsModule</title>
<path fill="none" stroke="#000000" d="M557,-122.1061C557,-141.3391 557,-169 557,-169 557,-169 371.2697,-169 371.2697,-169"/>
<polygon fill="#000000" stroke="#000000" points="371.2697,-165.5001 361.2697,-169 371.2696,-172.5001 371.2697,-165.5001"/>
</g>
<!-- UserdetailsComponent -->
<g id="node2" class="node">
<title>UserdetailsComponent</title>
<polygon fill="#ffffb3" stroke="#000000" points="452.3047,-122 307.6953,-122 307.6953,-86 452.3047,-86 452.3047,-122"/>
<text text-anchor="middle" x="380" y="-99.8" font-family="Times,serif" font-size="14.00" fill="#000000">UserdetailsComponent</text>
</g>
<!-- UserdetailsComponent&#45;&gt;UsersettingsModule -->
<g id="edge2" class="edge">
<title>UserdetailsComponent&#45;&gt;UsersettingsModule</title>
<path fill="none" stroke="#000000" d="M334.6119,-122.1061C334.6119,-122.1061 334.6119,-140.991 334.6119,-140.991"/>
<polygon fill="#000000" stroke="#000000" points="331.1119,-140.9909 334.6119,-150.991 338.1119,-140.991 331.1119,-140.9909"/>
</g>
<!-- UsersettingsComponent -->
<g id="node3" class="node">
<title>UsersettingsComponent</title>
<polygon fill="#ffffb3" stroke="#000000" points="290.0351,-122 139.9649,-122 139.9649,-86 290.0351,-86 290.0351,-122"/>
<text text-anchor="middle" x="215" y="-99.8" font-family="Times,serif" font-size="14.00" fill="#000000">UsersettingsComponent</text>
</g>
<!-- UsersettingsComponent&#45;&gt;UsersettingsModule -->
<g id="edge3" class="edge">
<title>UsersettingsComponent&#45;&gt;UsersettingsModule</title>
<path fill="none" stroke="#000000" d="M261.4457,-122.1061C261.4457,-122.1061 261.4457,-140.991 261.4457,-140.991"/>
<polygon fill="#000000" stroke="#000000" points="257.9457,-140.9909 261.4457,-150.991 264.9457,-140.991 257.9457,-140.9909"/>
</g>
<!-- UsersettingsComponent  -->
<g id="node6" class="node">
<title>UsersettingsComponent </title>
<polygon fill="#fb8072" stroke="#000000" points="374.0344,-252 219.9656,-252 219.9656,-216 374.0344,-216 374.0344,-252"/>
<text text-anchor="middle" x="297" y="-229.8" font-family="Times,serif" font-size="14.00" fill="#000000">UsersettingsComponent </text>
</g>
<!-- UsersettingsModule&#45;&gt;UsersettingsComponent  -->
<g id="edge5" class="edge">
<title>UsersettingsModule&#45;&gt;UsersettingsComponent </title>
<path fill="none" stroke="#000000" stroke-dasharray="5,2" d="M297,-187.1061C297,-187.1061 297,-205.991 297,-205.991"/>
<polygon fill="#000000" stroke="#000000" points="293.5001,-205.9909 297,-215.991 300.5001,-205.991 293.5001,-205.9909"/>
</g>
<!-- LoginModule -->
<g id="node5" class="node">
<title>LoginModule</title>
<polygon fill="#8dd3c7" stroke="#000000" points="116.493,-122 113.493,-126 92.493,-126 89.493,-122 23.507,-122 23.507,-86 116.493,-86 116.493,-122"/>
<text text-anchor="middle" x="70" y="-99.8" font-family="Times,serif" font-size="14.00" fill="#000000">LoginModule</text>
</g>
<!-- LoginModule&#45;&gt;UsersettingsModule -->
<g id="edge4" class="edge">
<title>LoginModule&#45;&gt;UsersettingsModule</title>
<path fill="none" stroke="#000000" d="M70,-122.1061C70,-141.3391 70,-169 70,-169 70,-169 222.5581,-169 222.5581,-169"/>
<polygon fill="#000000" stroke="#000000" points="222.5581,-172.5001 232.5581,-169 222.5581,-165.5001 222.5581,-172.5001"/>
</g>
</g>
</svg>
