<?xml version="1.0" encoding="UTF-8" standalone="no"?>
<!DOCTYPE svg PUBLIC "-//W3C//DTD SVG 1.1//EN"
 "http://www.w3.org/Graphics/SVG/1.1/DTD/svg11.dtd">
<!-- Generated by graphviz version 2.40.1 (20161225.0304)
 -->
<!-- Title: dependencies Pages: 1 -->
<svg width="504pt" height="284pt"
 viewBox="0.00 0.00 504.00 284.00" xmlns="http://www.w3.org/2000/svg" xmlns:xlink="http://www.w3.org/1999/xlink">
<g id="graph0" class="graph" transform="scale(1 1) rotate(0) translate(4 280)">
<title>dependencies</title>
<polygon fill="#ffffff" stroke="transparent" points="-4,4 -4,-280 500,-280 500,4 -4,4"/>
<text text-anchor="start" x="227.0091" y="-42.4" font-family="sans-serif" font-weight="bold" font-size="14.00" fill="#000000">Legend</text>
<polygon fill="#ffffb3" stroke="transparent" points="14,-10 14,-30 34,-30 34,-10 14,-10"/>
<text text-anchor="start" x="37.629" y="-15.4" font-family="sans-serif" font-size="14.00" fill="#000000"> &#160;Declarations</text>
<polygon fill="#8dd3c7" stroke="transparent" points="127,-10 127,-30 147,-30 147,-10 127,-10"/>
<text text-anchor="start" x="150.7251" y="-15.4" font-family="sans-serif" font-size="14.00" fill="#000000"> &#160;Module</text>
<polygon fill="#80b1d3" stroke="transparent" points="213,-10 213,-30 233,-30 233,-10 213,-10"/>
<text text-anchor="start" x="236.7812" y="-15.4" font-family="sans-serif" font-size="14.00" fill="#000000"> &#160;Bootstrap</text>
<polygon fill="#fdb462" stroke="transparent" points="310,-10 310,-30 330,-30 330,-10 310,-10"/>
<text text-anchor="start" x="333.6732" y="-15.4" font-family="sans-serif" font-size="14.00" fill="#000000"> &#160;Providers</text>
<polygon fill="#fb8072" stroke="transparent" points="406,-10 406,-30 426,-30 426,-10 406,-10"/>
<text text-anchor="start" x="429.7258" y="-15.4" font-family="sans-serif" font-size="14.00" fill="#000000"> &#160;Exports</text>
<g id="clust1" class="cluster">
<title>cluster_PipeModule</title>
<polygon fill="none" stroke="#000000" stroke-dasharray="1,5" points="131,-70 131,-268 365,-268 365,-70 131,-70"/>
</g>
<g id="clust2" class="cluster">
<title>cluster_PipeModule_declarations</title>
<polygon fill="none" stroke="#000000" points="140,-78 140,-130 350,-130 350,-78 140,-78"/>
</g>
<g id="clust6" class="cluster">
<title>cluster_PipeModule_exports</title>
<polygon fill="none" stroke="#000000" points="139,-208 139,-260 357,-260 357,-208 139,-208"/>
</g>
<!-- CustomDatePipe -->
<g id="node1" class="node">
<title>CustomDatePipe</title>
<polygon fill="#ffffb3" stroke="#000000" points="342.3767,-122 231.6233,-122 231.6233,-86 342.3767,-86 342.3767,-122"/>
<text text-anchor="middle" x="287" y="-99.8" font-family="Times,serif" font-size="14.00" fill="#000000">CustomDatePipe</text>
</g>
<!-- PipeModule -->
<g id="node3" class="node">
<title>PipeModule</title>
<polygon fill="#8dd3c7" stroke="#000000" points="276.4387,-187 273.4387,-191 252.4387,-191 249.4387,-187 191.5613,-187 191.5613,-151 276.4387,-151 276.4387,-187"/>
<text text-anchor="middle" x="234" y="-164.8" font-family="Times,serif" font-size="14.00" fill="#000000">PipeModule</text>
</g>
<!-- CustomDatePipe&#45;&gt;PipeModule -->
<g id="edge1" class="edge">
<title>CustomDatePipe&#45;&gt;PipeModule</title>
<path fill="none" stroke="#000000" d="M253.8903,-122.1061C253.8903,-122.1061 253.8903,-140.991 253.8903,-140.991"/>
<polygon fill="#000000" stroke="#000000" points="250.3903,-140.9909 253.8903,-150.991 257.3903,-140.991 250.3903,-140.9909"/>
</g>
<!-- SafePipe -->
<g id="node2" class="node">
<title>SafePipe</title>
<polygon fill="#ffffb3" stroke="#000000" points="213.7606,-122 148.2394,-122 148.2394,-86 213.7606,-86 213.7606,-122"/>
<text text-anchor="middle" x="181" y="-99.8" font-family="Times,serif" font-size="14.00" fill="#000000">SafePipe</text>
</g>
<!-- SafePipe&#45;&gt;PipeModule -->
<g id="edge2" class="edge">
<title>SafePipe&#45;&gt;PipeModule</title>
<path fill="none" stroke="#000000" d="M202.8307,-122.1061C202.8307,-122.1061 202.8307,-140.991 202.8307,-140.991"/>
<polygon fill="#000000" stroke="#000000" points="199.3307,-140.9909 202.8307,-150.991 206.3307,-140.991 199.3307,-140.9909"/>
</g>
<!-- CustomDatePipe  -->
<g id="node4" class="node">
<title>CustomDatePipe </title>
<polygon fill="#fb8072" stroke="#000000" points="349.3772,-252 234.6228,-252 234.6228,-216 349.3772,-216 349.3772,-252"/>
<text text-anchor="middle" x="292" y="-229.8" font-family="Times,serif" font-size="14.00" fill="#000000">CustomDatePipe </text>
</g>
<!-- PipeModule&#45;&gt;CustomDatePipe  -->
<g id="edge3" class="edge">
<title>PipeModule&#45;&gt;CustomDatePipe </title>
<path fill="none" stroke="#000000" stroke-dasharray="5,2" d="M255.5153,-187.1061C255.5153,-187.1061 255.5153,-205.991 255.5153,-205.991"/>
<polygon fill="#000000" stroke="#000000" points="252.0153,-205.9909 255.5153,-215.991 259.0153,-205.991 252.0153,-205.9909"/>
</g>
<!-- SafePipe  -->
<g id="node5" class="node">
<title>SafePipe </title>
<polygon fill="#fb8072" stroke="#000000" points="216.7607,-252 147.2393,-252 147.2393,-216 216.7607,-216 216.7607,-252"/>
<text text-anchor="middle" x="182" y="-229.8" font-family="Times,serif" font-size="14.00" fill="#000000">SafePipe </text>
</g>
<!-- PipeModule&#45;&gt;SafePipe  -->
<g id="edge4" class="edge">
<title>PipeModule&#45;&gt;SafePipe </title>
<path fill="none" stroke="#000000" stroke-dasharray="5,2" d="M204.2057,-187.1061C204.2057,-187.1061 204.2057,-205.991 204.2057,-205.991"/>
<polygon fill="#000000" stroke="#000000" points="200.7057,-205.9909 204.2057,-215.991 207.7057,-205.991 200.7057,-205.9909"/>
</g>
</g>
</svg>
