<?xml version="1.0" encoding="UTF-8" standalone="no"?>
<!DOCTYPE svg PUBLIC "-//W3C//DTD SVG 1.1//EN"
 "http://www.w3.org/Graphics/SVG/1.1/DTD/svg11.dtd">
<!-- Generated by graphviz version 2.40.1 (20161225.0304)
 -->
<!-- Title: dependencies Pages: 1 -->
<svg width="504pt" height="211pt"
 viewBox="0.00 0.00 504.00 211.00" xmlns="http://www.w3.org/2000/svg" xmlns:xlink="http://www.w3.org/1999/xlink">
<g id="graph0" class="graph" transform="scale(1 1) rotate(0) translate(4 207)">
<title>dependencies</title>
<polygon fill="#ffffff" stroke="transparent" points="-4,4 -4,-207 500,-207 500,4 -4,4"/>
<text text-anchor="start" x="227.0091" y="-42.4" font-family="sans-serif" font-weight="bold" font-size="14.00" fill="#000000">Legend</text>
<polygon fill="#ffffb3" stroke="transparent" points="14,-10 14,-30 34,-30 34,-10 14,-10"/>
<text text-anchor="start" x="37.629" y="-15.4" font-family="sans-serif" font-size="14.00" fill="#000000"> &#160;Declarations</text>
<polygon fill="#8dd3c7" stroke="transparent" points="127,-10 127,-30 147,-30 147,-10 127,-10"/>
<text text-anchor="start" x="150.7251" y="-15.4" font-family="sans-serif" font-size="14.00" fill="#000000"> &#160;Module</text>
<polygon fill="#80b1d3" stroke="transparent" points="213,-10 213,-30 233,-30 233,-10 213,-10"/>
<text text-anchor="start" x="236.7812" y="-15.4" font-family="sans-serif" font-size="14.00" fill="#000000"> &#160;Bootstrap</text>
<polygon fill="#fdb462" stroke="transparent" points="310,-10 310,-30 330,-30 330,-10 310,-10"/>
<text text-anchor="start" x="333.6732" y="-15.4" font-family="sans-serif" font-size="14.00" fill="#000000"> &#160;Providers</text>
<polygon fill="#fb8072" stroke="transparent" points="406,-10 406,-30 426,-30 426,-10 406,-10"/>
<text text-anchor="start" x="429.7258" y="-15.4" font-family="sans-serif" font-size="14.00" fill="#000000"> &#160;Exports</text>
<g id="clust1" class="cluster">
<title>cluster_UsersettingsModule</title>
<polygon fill="none" stroke="#000000" stroke-dasharray="1,5" points="99,-70 99,-195 397,-195 397,-70 99,-70"/>
</g>
<g id="clust2" class="cluster">
<title>cluster_UsersettingsModule_declarations</title>
<polygon fill="none" stroke="#000000" points="223,-78 223,-130 389,-130 389,-78 223,-78"/>
</g>
<g id="clust4" class="cluster">
<title>cluster_UsersettingsModule_imports</title>
<polygon fill="none" stroke="#000000" points="107,-78 107,-130 215,-130 215,-78 107,-78"/>
</g>
<!-- UsersettingsComponent -->
<g id="node1" class="node">
<title>UsersettingsComponent</title>
<polygon fill="#ffffb3" stroke="#000000" points="381.0351,-122 230.9649,-122 230.9649,-86 381.0351,-86 381.0351,-122"/>
<text text-anchor="middle" x="306" y="-99.8" font-family="Times,serif" font-size="14.00" fill="#000000">UsersettingsComponent</text>
</g>
<!-- UsersettingsModule -->
<g id="node2" class="node">
<title>UsersettingsModule</title>
<polygon fill="#8dd3c7" stroke="#000000" points="302.252,-187 299.252,-191 278.252,-191 275.252,-187 173.748,-187 173.748,-151 302.252,-151 302.252,-187"/>
<text text-anchor="middle" x="238" y="-164.8" font-family="Times,serif" font-size="14.00" fill="#000000">UsersettingsModule</text>
</g>
<!-- UsersettingsComponent&#45;&gt;UsersettingsModule -->
<g id="edge1" class="edge">
<title>UsersettingsComponent&#45;&gt;UsersettingsModule</title>
<path fill="none" stroke="#000000" d="M266.5544,-122.1061C266.5544,-122.1061 266.5544,-140.991 266.5544,-140.991"/>
<polygon fill="#000000" stroke="#000000" points="263.0544,-140.9909 266.5544,-150.991 270.0544,-140.991 263.0544,-140.9909"/>
</g>
<!-- LoginModule -->
<g id="node3" class="node">
<title>LoginModule</title>
<polygon fill="#8dd3c7" stroke="#000000" points="207.493,-122 204.493,-126 183.493,-126 180.493,-122 114.507,-122 114.507,-86 207.493,-86 207.493,-122"/>
<text text-anchor="middle" x="161" y="-99.8" font-family="Times,serif" font-size="14.00" fill="#000000">LoginModule</text>
</g>
<!-- LoginModule&#45;&gt;UsersettingsModule -->
<g id="edge2" class="edge">
<title>LoginModule&#45;&gt;UsersettingsModule</title>
<path fill="none" stroke="#000000" d="M190.5603,-122.1061C190.5603,-122.1061 190.5603,-140.991 190.5603,-140.991"/>
<polygon fill="#000000" stroke="#000000" points="187.0604,-140.9909 190.5603,-150.991 194.0604,-140.991 187.0604,-140.9909"/>
</g>
</g>
</svg>
