<?xml version="1.0" encoding="UTF-8" standalone="no"?>
<!DOCTYPE svg PUBLIC "-//W3C//DTD SVG 1.1//EN"
 "http://www.w3.org/Graphics/SVG/1.1/DTD/svg11.dtd">
<!-- Generated by graphviz version 2.40.1 (20161225.0304)
 -->
<!-- Title: dependencies Pages: 1 -->
<svg width="1922pt" height="284pt"
 viewBox="0.00 0.00 1922.00 284.00" xmlns="http://www.w3.org/2000/svg" xmlns:xlink="http://www.w3.org/1999/xlink">
<g id="graph0" class="graph" transform="scale(1 1) rotate(0) translate(4 280)">
<title>dependencies</title>
<polygon fill="#ffffff" stroke="transparent" points="-4,4 -4,-280 1918,-280 1918,4 -4,4"/>
<text text-anchor="start" x="936.0091" y="-42.4" font-family="sans-serif" font-weight="bold" font-size="14.00" fill="#000000">Legend</text>
<polygon fill="#ffffb3" stroke="transparent" points="723,-10 723,-30 743,-30 743,-10 723,-10"/>
<text text-anchor="start" x="746.629" y="-15.4" font-family="sans-serif" font-size="14.00" fill="#000000"> &#160;Declarations</text>
<polygon fill="#8dd3c7" stroke="transparent" points="836,-10 836,-30 856,-30 856,-10 836,-10"/>
<text text-anchor="start" x="859.7251" y="-15.4" font-family="sans-serif" font-size="14.00" fill="#000000"> &#160;Module</text>
<polygon fill="#80b1d3" stroke="transparent" points="922,-10 922,-30 942,-30 942,-10 922,-10"/>
<text text-anchor="start" x="945.7812" y="-15.4" font-family="sans-serif" font-size="14.00" fill="#000000"> &#160;Bootstrap</text>
<polygon fill="#fdb462" stroke="transparent" points="1019,-10 1019,-30 1039,-30 1039,-10 1019,-10"/>
<text text-anchor="start" x="1042.6732" y="-15.4" font-family="sans-serif" font-size="14.00" fill="#000000"> &#160;Providers</text>
<polygon fill="#fb8072" stroke="transparent" points="1115,-10 1115,-30 1135,-30 1135,-10 1115,-10"/>
<text text-anchor="start" x="1138.7258" y="-15.4" font-family="sans-serif" font-size="14.00" fill="#000000"> &#160;Exports</text>
<g id="clust1" class="cluster">
<title>cluster_AppModule</title>
<polygon fill="none" stroke="#000000" stroke-dasharray="1,5" points="8,-70 8,-268 1906,-268 1906,-70 8,-70"/>
</g>
<g id="clust2" class="cluster">
<title>cluster_AppModule_declarations</title>
<polygon fill="none" stroke="#000000" points="1776,-78 1776,-130 1898,-130 1898,-78 1776,-78"/>
</g>
<g id="clust4" class="cluster">
<title>cluster_AppModule_imports</title>
<polygon fill="none" stroke="#000000" points="192,-78 192,-130 1768,-130 1768,-78 192,-78"/>
</g>
<g id="clust6" class="cluster">
<title>cluster_AppModule_bootstrap</title>
<polygon fill="none" stroke="#000000" points="963,-208 963,-260 1087,-260 1087,-208 963,-208"/>
</g>
<g id="clust7" class="cluster">
<title>cluster_AppModule_providers</title>
<polygon fill="none" stroke="#000000" points="16,-78 16,-130 184,-130 184,-78 16,-78"/>
</g>
<!-- AppComponent -->
<g id="node1" class="node">
<title>AppComponent</title>
<polygon fill="#ffffb3" stroke="#000000" points="1889.9399,-122 1784.0601,-122 1784.0601,-86 1889.9399,-86 1889.9399,-122"/>
<text text-anchor="middle" x="1837" y="-99.8" font-family="Times,serif" font-size="14.00" fill="#000000">AppComponent</text>
</g>
<!-- AppModule -->
<g id="node2" class="node">
<title>AppModule</title>
<polygon fill="#8dd3c7" stroke="#000000" points="1066.6571,-187 1063.6571,-191 1042.6571,-191 1039.6571,-187 983.3429,-187 983.3429,-151 1066.6571,-151 1066.6571,-187"/>
<text text-anchor="middle" x="1025" y="-164.8" font-family="Times,serif" font-size="14.00" fill="#000000">AppModule</text>
</g>
<!-- AppComponent&#45;&gt;AppModule -->
<g id="edge1" class="edge">
<title>AppComponent&#45;&gt;AppModule</title>
<path fill="none" stroke="#000000" d="M1837,-122.0908C1837,-145.1328 1837,-182 1837,-182 1837,-182 1076.6647,-182 1076.6647,-182"/>
<polygon fill="#000000" stroke="#000000" points="1076.6648,-178.5001 1066.6647,-182 1076.6647,-185.5001 1076.6648,-178.5001"/>
</g>
<!-- AppComponent  -->
<g id="node15" class="node">
<title>AppComponent </title>
<polygon fill="#80b1d3" stroke="#000000" points="1079.439,-252 970.561,-252 970.561,-216 1079.439,-216 1079.439,-252"/>
<text text-anchor="middle" x="1025" y="-229.8" font-family="Times,serif" font-size="14.00" fill="#000000">AppComponent </text>
</g>
<!-- AppModule&#45;&gt;AppComponent  -->
<g id="edge14" class="edge">
<title>AppModule&#45;&gt;AppComponent </title>
<path fill="none" stroke="#000000" stroke-dasharray="1,5" d="M1025,-187.1061C1025,-187.1061 1025,-205.991 1025,-205.991"/>
<polygon fill="#000000" stroke="#000000" points="1021.5001,-205.9909 1025,-215.991 1028.5001,-205.991 1021.5001,-205.9909"/>
</g>
<!-- AppRoutingModule -->
<g id="node3" class="node">
<title>AppRoutingModule</title>
<polygon fill="#8dd3c7" stroke="#000000" points="1760.2744,-122 1757.2744,-126 1736.2744,-126 1733.2744,-122 1631.7256,-122 1631.7256,-86 1760.2744,-86 1760.2744,-122"/>
<text text-anchor="middle" x="1696" y="-99.8" font-family="Times,serif" font-size="14.00" fill="#000000">AppRoutingModule</text>
</g>
<!-- AppRoutingModule&#45;&gt;AppModule -->
<g id="edge2" class="edge">
<title>AppRoutingModule&#45;&gt;AppModule</title>
<path fill="none" stroke="#000000" d="M1696,-122.0449C1696,-143.6623 1696,-177 1696,-177 1696,-177 1076.7205,-177 1076.7205,-177"/>
<polygon fill="#000000" stroke="#000000" points="1076.7206,-173.5001 1066.7205,-177 1076.7205,-180.5001 1076.7206,-173.5001"/>
</g>
<!-- CoreModule -->
<g id="node4" class="node">
<title>CoreModule</title>
<polygon fill="#8dd3c7" stroke="#000000" points="1613.2619,-122 1610.2619,-126 1589.2619,-126 1586.2619,-122 1526.7381,-122 1526.7381,-86 1613.2619,-86 1613.2619,-122"/>
<text text-anchor="middle" x="1570" y="-99.8" font-family="Times,serif" font-size="14.00" fill="#000000">CoreModule</text>
</g>
<!-- CoreModule&#45;&gt;AppModule -->
<g id="edge3" class="edge">
<title>CoreModule&#45;&gt;AppModule</title>
<path fill="none" stroke="#000000" d="M1570,-122.2228C1570,-142.3652 1570,-172 1570,-172 1570,-172 1076.8603,-172 1076.8603,-172"/>
<polygon fill="#000000" stroke="#000000" points="1076.8603,-168.5001 1066.8603,-172 1076.8603,-175.5001 1076.8603,-168.5001"/>
</g>
<!-- HeaderModule -->
<g id="node5" class="node">
<title>HeaderModule</title>
<polygon fill="#8dd3c7" stroke="#000000" points="1508.9608,-122 1505.9608,-126 1484.9608,-126 1481.9608,-122 1409.0392,-122 1409.0392,-86 1508.9608,-86 1508.9608,-122"/>
<text text-anchor="middle" x="1459" y="-99.8" font-family="Times,serif" font-size="14.00" fill="#000000">HeaderModule</text>
</g>
<!-- HeaderModule&#45;&gt;AppModule -->
<g id="edge4" class="edge">
<title>HeaderModule&#45;&gt;AppModule</title>
<path fill="none" stroke="#000000" d="M1459,-122.2222C1459,-140.8285 1459,-167 1459,-167 1459,-167 1077.0081,-167 1077.0081,-167"/>
<polygon fill="#000000" stroke="#000000" points="1077.0081,-163.5001 1067.0081,-167 1077.0081,-170.5001 1077.0081,-163.5001"/>
</g>
<!-- HelpDialogModule -->
<g id="node6" class="node">
<title>HelpDialogModule</title>
<polygon fill="#8dd3c7" stroke="#000000" points="1391.3641,-122 1388.3641,-126 1367.3641,-126 1364.3641,-122 1266.6359,-122 1266.6359,-86 1391.3641,-86 1391.3641,-122"/>
<text text-anchor="middle" x="1329" y="-99.8" font-family="Times,serif" font-size="14.00" fill="#000000">HelpDialogModule</text>
</g>
<!-- HelpDialogModule&#45;&gt;AppModule -->
<g id="edge5" class="edge">
<title>HelpDialogModule&#45;&gt;AppModule</title>
<path fill="none" stroke="#000000" d="M1329,-122.0336C1329,-139.0597 1329,-162 1329,-162 1329,-162 1076.9507,-162 1076.9507,-162"/>
<polygon fill="#000000" stroke="#000000" points="1076.9508,-158.5001 1066.9507,-162 1076.9507,-165.5001 1076.9508,-158.5001"/>
</g>
<!-- HomeModule -->
<g id="node7" class="node">
<title>HomeModule</title>
<polygon fill="#8dd3c7" stroke="#000000" points="1248.7619,-122 1245.7619,-126 1224.7619,-126 1221.7619,-122 1155.2381,-122 1155.2381,-86 1248.7619,-86 1248.7619,-122"/>
<text text-anchor="middle" x="1202" y="-99.8" font-family="Times,serif" font-size="14.00" fill="#000000">HomeModule</text>
</g>
<!-- HomeModule&#45;&gt;AppModule -->
<g id="edge6" class="edge">
<title>HomeModule&#45;&gt;AppModule</title>
<path fill="none" stroke="#000000" d="M1202,-122.2396C1202,-137.5706 1202,-157 1202,-157 1202,-157 1076.9465,-157 1076.9465,-157"/>
<polygon fill="#000000" stroke="#000000" points="1076.9466,-153.5001 1066.9465,-157 1076.9465,-160.5001 1076.9466,-153.5001"/>
</g>
<!-- ImprintModule -->
<g id="node8" class="node">
<title>ImprintModule</title>
<polygon fill="#8dd3c7" stroke="#000000" points="1136.5438,-122 1133.5438,-126 1112.5438,-126 1109.5438,-122 1035.4562,-122 1035.4562,-86 1136.5438,-86 1136.5438,-122"/>
<text text-anchor="middle" x="1086" y="-99.8" font-family="Times,serif" font-size="14.00" fill="#000000">ImprintModule</text>
</g>
<!-- ImprintModule&#45;&gt;AppModule -->
<g id="edge7" class="edge">
<title>ImprintModule&#45;&gt;AppModule</title>
<path fill="none" stroke="#000000" d="M1051.0284,-122.1061C1051.0284,-122.1061 1051.0284,-140.991 1051.0284,-140.991"/>
<polygon fill="#000000" stroke="#000000" points="1047.5285,-140.9909 1051.0284,-150.991 1054.5285,-140.991 1047.5285,-140.9909"/>
</g>
<!-- LoggingModule -->
<g id="node9" class="node">
<title>LoggingModule</title>
<polygon fill="#8dd3c7" stroke="#000000" points="1017.493,-122 1014.493,-126 993.493,-126 990.493,-122 910.507,-122 910.507,-86 1017.493,-86 1017.493,-122"/>
<text text-anchor="middle" x="964" y="-99.8" font-family="Times,serif" font-size="14.00" fill="#000000">LoggingModule</text>
</g>
<!-- LoggingModule&#45;&gt;AppModule -->
<g id="edge8" class="edge">
<title>LoggingModule&#45;&gt;AppModule</title>
<path fill="none" stroke="#000000" d="M1000.3342,-122.1061C1000.3342,-122.1061 1000.3342,-140.991 1000.3342,-140.991"/>
<polygon fill="#000000" stroke="#000000" points="996.8342,-140.9909 1000.3342,-150.991 1003.8342,-140.991 996.8342,-140.9909"/>
</g>
<!-- LoginModule -->
<g id="node10" class="node">
<title>LoginModule</title>
<polygon fill="#8dd3c7" stroke="#000000" points="892.493,-122 889.493,-126 868.493,-126 865.493,-122 799.507,-122 799.507,-86 892.493,-86 892.493,-122"/>
<text text-anchor="middle" x="846" y="-99.8" font-family="Times,serif" font-size="14.00" fill="#000000">LoginModule</text>
</g>
<!-- LoginModule&#45;&gt;AppModule -->
<g id="edge9" class="edge">
<title>LoginModule&#45;&gt;AppModule</title>
<path fill="none" stroke="#000000" d="M846,-122.2396C846,-137.5706 846,-157 846,-157 846,-157 973.0325,-157 973.0325,-157"/>
<polygon fill="#000000" stroke="#000000" points="973.0325,-160.5001 983.0325,-157 973.0324,-153.5001 973.0325,-160.5001"/>
</g>
<!-- NavigationModule -->
<g id="node11" class="node">
<title>NavigationModule</title>
<polygon fill="#8dd3c7" stroke="#000000" points="781.7576,-122 778.7576,-126 757.7576,-126 754.7576,-122 660.2424,-122 660.2424,-86 781.7576,-86 781.7576,-122"/>
<text text-anchor="middle" x="721" y="-99.8" font-family="Times,serif" font-size="14.00" fill="#000000">NavigationModule</text>
</g>
<!-- NavigationModule&#45;&gt;AppModule -->
<g id="edge10" class="edge">
<title>NavigationModule&#45;&gt;AppModule</title>
<path fill="none" stroke="#000000" d="M721,-122.0336C721,-139.0597 721,-162 721,-162 721,-162 973.0493,-162 973.0493,-162"/>
<polygon fill="#000000" stroke="#000000" points="973.0493,-165.5001 983.0493,-162 973.0492,-158.5001 973.0493,-165.5001"/>
</g>
<!-- PrivacyPolicyModule -->
<g id="node12" class="node">
<title>PrivacyPolicyModule</title>
<polygon fill="#8dd3c7" stroke="#000000" points="642.0912,-122 639.0912,-126 618.0912,-126 615.0912,-122 503.9088,-122 503.9088,-86 642.0912,-86 642.0912,-122"/>
<text text-anchor="middle" x="573" y="-99.8" font-family="Times,serif" font-size="14.00" fill="#000000">PrivacyPolicyModule</text>
</g>
<!-- PrivacyPolicyModule&#45;&gt;AppModule -->
<g id="edge11" class="edge">
<title>PrivacyPolicyModule&#45;&gt;AppModule</title>
<path fill="none" stroke="#000000" d="M573,-122.2222C573,-140.8285 573,-167 573,-167 573,-167 973.2871,-167 973.2871,-167"/>
<polygon fill="#000000" stroke="#000000" points="973.2871,-170.5001 983.2871,-167 973.2871,-163.5001 973.2871,-170.5001"/>
</g>
<!-- ToastMessageModule -->
<g id="node13" class="node">
<title>ToastMessageModule</title>
<polygon fill="#8dd3c7" stroke="#000000" points="485.6303,-122 482.6303,-126 461.6303,-126 458.6303,-122 346.3697,-122 346.3697,-86 485.6303,-86 485.6303,-122"/>
<text text-anchor="middle" x="416" y="-99.8" font-family="Times,serif" font-size="14.00" fill="#000000">ToastMessageModule</text>
</g>
<!-- ToastMessageModule&#45;&gt;AppModule -->
<g id="edge12" class="edge">
<title>ToastMessageModule&#45;&gt;AppModule</title>
<path fill="none" stroke="#000000" d="M416,-122.2228C416,-142.3652 416,-172 416,-172 416,-172 973.141,-172 973.141,-172"/>
<polygon fill="#000000" stroke="#000000" points="973.141,-175.5001 983.141,-172 973.1409,-168.5001 973.141,-175.5001"/>
</g>
<!-- UsersettingsModule -->
<g id="node14" class="node">
<title>UsersettingsModule</title>
<polygon fill="#8dd3c7" stroke="#000000" points="328.252,-122 325.252,-126 304.252,-126 301.252,-122 199.748,-122 199.748,-86 328.252,-86 328.252,-122"/>
<text text-anchor="middle" x="264" y="-99.8" font-family="Times,serif" font-size="14.00" fill="#000000">UsersettingsModule</text>
</g>
<!-- UsersettingsModule&#45;&gt;AppModule -->
<g id="edge13" class="edge">
<title>UsersettingsModule&#45;&gt;AppModule</title>
<path fill="none" stroke="#000000" d="M264,-122.0449C264,-143.6623 264,-177 264,-177 264,-177 973.2735,-177 973.2735,-177"/>
<polygon fill="#000000" stroke="#000000" points="973.2736,-180.5001 983.2735,-177 973.2735,-173.5001 973.2736,-180.5001"/>
</g>
<!-- LanguageConfig -->
<g id="node16" class="node">
<title>LanguageConfig</title>
<ellipse fill="#fdb462" stroke="#000000" cx="100" cy="-104" rx="75.8682" ry="18"/>
<text text-anchor="middle" x="100" y="-99.8" font-family="Times,serif" font-size="14.00" fill="#000000">LanguageConfig</text>
</g>
<!-- LanguageConfig&#45;&gt;AppModule -->
<g id="edge15" class="edge">
<title>LanguageConfig&#45;&gt;AppModule</title>
<path fill="none" stroke="#000000" d="M100,-122.0908C100,-145.1328 100,-182 100,-182 100,-182 973.1549,-182 973.1549,-182"/>
<polygon fill="#000000" stroke="#000000" points="973.1549,-185.5001 983.1549,-182 973.1548,-178.5001 973.1549,-185.5001"/>
</g>
</g>
</svg>
