<?xml version="1.0" encoding="UTF-8" standalone="no"?>
<!DOCTYPE svg PUBLIC "-//W3C//DTD SVG 1.1//EN"
 "http://www.w3.org/Graphics/SVG/1.1/DTD/svg11.dtd">
<!-- Generated by graphviz version 2.40.1 (20161225.0304)
 -->
<!-- Title: dependencies Pages: 1 -->
<svg width="2350pt" height="284pt"
 viewBox="0.00 0.00 2350.00 284.00" xmlns="http://www.w3.org/2000/svg" xmlns:xlink="http://www.w3.org/1999/xlink">
<g id="graph0" class="graph" transform="scale(1 1) rotate(0) translate(4 280)">
<title>dependencies</title>
<polygon fill="#ffffff" stroke="transparent" points="-4,4 -4,-280 2346,-280 2346,4 -4,4"/>
<text text-anchor="start" x="1150.0091" y="-42.4" font-family="sans-serif" font-weight="bold" font-size="14.00" fill="#000000">Legend</text>
<polygon fill="#ffffb3" stroke="transparent" points="937,-10 937,-30 957,-30 957,-10 937,-10"/>
<text text-anchor="start" x="960.629" y="-15.4" font-family="sans-serif" font-size="14.00" fill="#000000"> &#160;Declarations</text>
<polygon fill="#8dd3c7" stroke="transparent" points="1050,-10 1050,-30 1070,-30 1070,-10 1050,-10"/>
<text text-anchor="start" x="1073.7251" y="-15.4" font-family="sans-serif" font-size="14.00" fill="#000000"> &#160;Module</text>
<polygon fill="#80b1d3" stroke="transparent" points="1136,-10 1136,-30 1156,-30 1156,-10 1136,-10"/>
<text text-anchor="start" x="1159.7812" y="-15.4" font-family="sans-serif" font-size="14.00" fill="#000000"> &#160;Bootstrap</text>
<polygon fill="#fdb462" stroke="transparent" points="1233,-10 1233,-30 1253,-30 1253,-10 1233,-10"/>
<text text-anchor="start" x="1256.6732" y="-15.4" font-family="sans-serif" font-size="14.00" fill="#000000"> &#160;Providers</text>
<polygon fill="#fb8072" stroke="transparent" points="1329,-10 1329,-30 1349,-30 1349,-10 1329,-10"/>
<text text-anchor="start" x="1352.7258" y="-15.4" font-family="sans-serif" font-size="14.00" fill="#000000"> &#160;Exports</text>
<g id="clust1" class="cluster">
<title>cluster_AppModule</title>
<polygon fill="none" stroke="#000000" stroke-dasharray="1,5" points="8,-70 8,-268 2334,-268 2334,-70 8,-70"/>
</g>
<g id="clust2" class="cluster">
<title>cluster_AppModule_declarations</title>
<polygon fill="none" stroke="#000000" points="2204,-78 2204,-130 2326,-130 2326,-78 2204,-78"/>
</g>
<g id="clust4" class="cluster">
<title>cluster_AppModule_imports</title>
<polygon fill="none" stroke="#000000" points="192,-78 192,-130 2196,-130 2196,-78 192,-78"/>
</g>
<g id="clust6" class="cluster">
<title>cluster_AppModule_bootstrap</title>
<polygon fill="none" stroke="#000000" points="1082,-208 1082,-260 1206,-260 1206,-208 1082,-208"/>
</g>
<g id="clust7" class="cluster">
<title>cluster_AppModule_providers</title>
<polygon fill="none" stroke="#000000" points="16,-78 16,-130 184,-130 184,-78 16,-78"/>
</g>
<!-- AppComponent -->
<g id="node1" class="node">
<title>AppComponent</title>
<polygon fill="#ffffb3" stroke="#000000" points="2317.9399,-122 2212.0601,-122 2212.0601,-86 2317.9399,-86 2317.9399,-122"/>
<text text-anchor="middle" x="2265" y="-99.8" font-family="Times,serif" font-size="14.00" fill="#000000">AppComponent</text>
</g>
<!-- AppModule -->
<g id="node2" class="node">
<title>AppModule</title>
<polygon fill="#8dd3c7" stroke="#000000" points="1185.6571,-187 1182.6571,-191 1161.6571,-191 1158.6571,-187 1102.3429,-187 1102.3429,-151 1185.6571,-151 1185.6571,-187"/>
<text text-anchor="middle" x="1144" y="-164.8" font-family="Times,serif" font-size="14.00" fill="#000000">AppModule</text>
</g>
<!-- AppComponent&#45;&gt;AppModule -->
<g id="edge1" class="edge">
<title>AppComponent&#45;&gt;AppModule</title>
<path fill="none" stroke="#000000" d="M2265,-122.3228C2265,-145.6602 2265,-183 2265,-183 2265,-183 1195.8986,-183 1195.8986,-183"/>
<polygon fill="#000000" stroke="#000000" points="1195.8986,-179.5001 1185.8986,-183 1195.8986,-186.5001 1195.8986,-179.5001"/>
</g>
<!-- AppComponent  -->
<g id="node17" class="node">
<title>AppComponent </title>
<polygon fill="#80b1d3" stroke="#000000" points="1198.439,-252 1089.561,-252 1089.561,-216 1198.439,-216 1198.439,-252"/>
<text text-anchor="middle" x="1144" y="-229.8" font-family="Times,serif" font-size="14.00" fill="#000000">AppComponent </text>
</g>
<!-- AppModule&#45;&gt;AppComponent  -->
<g id="edge16" class="edge">
<title>AppModule&#45;&gt;AppComponent </title>
<path fill="none" stroke="#000000" stroke-dasharray="1,5" d="M1144,-187.1061C1144,-187.1061 1144,-205.991 1144,-205.991"/>
<polygon fill="#000000" stroke="#000000" points="1140.5001,-205.9909 1144,-215.991 1147.5001,-205.991 1140.5001,-205.9909"/>
</g>
<!-- AppRoutingModule -->
<g id="node3" class="node">
<title>AppRoutingModule</title>
<polygon fill="#8dd3c7" stroke="#000000" points="2188.2744,-122 2185.2744,-126 2164.2744,-126 2161.2744,-122 2059.7256,-122 2059.7256,-86 2188.2744,-86 2188.2744,-122"/>
<text text-anchor="middle" x="2124" y="-99.8" font-family="Times,serif" font-size="14.00" fill="#000000">AppRoutingModule</text>
</g>
<!-- AppRoutingModule&#45;&gt;AppModule -->
<g id="edge2" class="edge">
<title>AppRoutingModule&#45;&gt;AppModule</title>
<path fill="none" stroke="#000000" d="M2124,-122.2921C2124,-144.2057 2124,-178 2124,-178 2124,-178 1195.7959,-178 1195.7959,-178"/>
<polygon fill="#000000" stroke="#000000" points="1195.7959,-174.5001 1185.7959,-178 1195.7958,-181.5001 1195.7959,-174.5001"/>
</g>
<!-- BackendDocumentationModule -->
<g id="node4" class="node">
<title>BackendDocumentationModule</title>
<polygon fill="#8dd3c7" stroke="#000000" points="2041.3431,-122 2038.3431,-126 2017.3431,-126 2014.3431,-122 1846.6569,-122 1846.6569,-86 2041.3431,-86 2041.3431,-122"/>
<text text-anchor="middle" x="1944" y="-99.8" font-family="Times,serif" font-size="14.00" fill="#000000">BackendDocumentationModule</text>
</g>
<!-- BackendDocumentationModule&#45;&gt;AppModule -->
<g id="edge3" class="edge">
<title>BackendDocumentationModule&#45;&gt;AppModule</title>
<path fill="none" stroke="#000000" d="M1944,-122.0267C1944,-142.7672 1944,-174 1944,-174 1944,-174 1195.8851,-174 1195.8851,-174"/>
<polygon fill="#000000" stroke="#000000" points="1195.8851,-170.5001 1185.8851,-174 1195.8851,-177.5001 1195.8851,-170.5001"/>
</g>
<!-- CoreModule -->
<g id="node5" class="node">
<title>CoreModule</title>
<polygon fill="#8dd3c7" stroke="#000000" points="1828.2619,-122 1825.2619,-126 1804.2619,-126 1801.2619,-122 1741.7381,-122 1741.7381,-86 1828.2619,-86 1828.2619,-122"/>
<text text-anchor="middle" x="1785" y="-99.8" font-family="Times,serif" font-size="14.00" fill="#000000">CoreModule</text>
</g>
<!-- CoreModule&#45;&gt;AppModule -->
<g id="edge4" class="edge">
<title>CoreModule&#45;&gt;AppModule</title>
<path fill="none" stroke="#000000" d="M1785,-122.1061C1785,-141.3391 1785,-169 1785,-169 1785,-169 1196.0578,-169 1196.0578,-169"/>
<polygon fill="#000000" stroke="#000000" points="1196.0578,-165.5001 1186.0578,-169 1196.0578,-172.5001 1196.0578,-165.5001"/>
</g>
<!-- FrontendDocumentationModule -->
<g id="node6" class="node">
<title>FrontendDocumentationModule</title>
<polygon fill="#8dd3c7" stroke="#000000" points="1723.4114,-122 1720.4114,-126 1699.4114,-126 1696.4114,-122 1526.5886,-122 1526.5886,-86 1723.4114,-86 1723.4114,-122"/>
<text text-anchor="middle" x="1625" y="-99.8" font-family="Times,serif" font-size="14.00" fill="#000000">FrontendDocumentationModule</text>
</g>
<!-- FrontendDocumentationModule&#45;&gt;AppModule -->
<g id="edge5" class="edge">
<title>FrontendDocumentationModule&#45;&gt;AppModule</title>
<path fill="none" stroke="#000000" d="M1625,-122.302C1625,-140.2699 1625,-165 1625,-165 1625,-165 1195.8442,-165 1195.8442,-165"/>
<polygon fill="#000000" stroke="#000000" points="1195.8442,-161.5001 1185.8442,-165 1195.8441,-168.5001 1195.8442,-161.5001"/>
</g>
<!-- HeaderModule -->
<g id="node7" class="node">
<title>HeaderModule</title>
<polygon fill="#8dd3c7" stroke="#000000" points="1508.9608,-122 1505.9608,-126 1484.9608,-126 1481.9608,-122 1409.0392,-122 1409.0392,-86 1508.9608,-86 1508.9608,-122"/>
<text text-anchor="middle" x="1459" y="-99.8" font-family="Times,serif" font-size="14.00" fill="#000000">HeaderModule</text>
</g>
<!-- HeaderModule&#45;&gt;AppModule -->
<g id="edge6" class="edge">
<title>HeaderModule&#45;&gt;AppModule</title>
<path fill="none" stroke="#000000" d="M1459,-122.027C1459,-138.3976 1459,-160 1459,-160 1459,-160 1195.8296,-160 1195.8296,-160"/>
<polygon fill="#000000" stroke="#000000" points="1195.8296,-156.5001 1185.8296,-160 1195.8295,-163.5001 1195.8296,-156.5001"/>
</g>
<!-- HelpDialogModule -->
<g id="node8" class="node">
<title>HelpDialogModule</title>
<polygon fill="#8dd3c7" stroke="#000000" points="1391.3641,-122 1388.3641,-126 1367.3641,-126 1364.3641,-122 1266.6359,-122 1266.6359,-86 1391.3641,-86 1391.3641,-122"/>
<text text-anchor="middle" x="1329" y="-99.8" font-family="Times,serif" font-size="14.00" fill="#000000">HelpDialogModule</text>
</g>
<!-- HelpDialogModule&#45;&gt;AppModule -->
<g id="edge7" class="edge">
<title>HelpDialogModule&#45;&gt;AppModule</title>
<path fill="none" stroke="#000000" d="M1329,-122.1871C1329,-137.1824 1329,-156 1329,-156 1329,-156 1195.9794,-156 1195.9794,-156"/>
<polygon fill="#000000" stroke="#000000" points="1195.9794,-152.5001 1185.9794,-156 1195.9793,-159.5001 1195.9794,-152.5001"/>
</g>
<!-- HomeModule -->
<g id="node9" class="node">
<title>HomeModule</title>
<polygon fill="#8dd3c7" stroke="#000000" points="1248.7619,-122 1245.7619,-126 1224.7619,-126 1221.7619,-122 1155.2381,-122 1155.2381,-86 1248.7619,-86 1248.7619,-122"/>
<text text-anchor="middle" x="1202" y="-99.8" font-family="Times,serif" font-size="14.00" fill="#000000">HomeModule</text>
</g>
<!-- HomeModule&#45;&gt;AppModule -->
<g id="edge8" class="edge">
<title>HomeModule&#45;&gt;AppModule</title>
<path fill="none" stroke="#000000" d="M1170.4737,-122.1061C1170.4737,-122.1061 1170.4737,-140.991 1170.4737,-140.991"/>
<polygon fill="#000000" stroke="#000000" points="1166.9738,-140.9909 1170.4737,-150.991 1173.9738,-140.991 1166.9738,-140.9909"/>
</g>
<!-- ImprintModule -->
<g id="node10" class="node">
<title>ImprintModule</title>
<polygon fill="#8dd3c7" stroke="#000000" points="1136.5438,-122 1133.5438,-126 1112.5438,-126 1109.5438,-122 1035.4562,-122 1035.4562,-86 1136.5438,-86 1136.5438,-122"/>
<text text-anchor="middle" x="1086" y="-99.8" font-family="Times,serif" font-size="14.00" fill="#000000">ImprintModule</text>
</g>
<!-- ImprintModule&#45;&gt;AppModule -->
<g id="edge9" class="edge">
<title>ImprintModule&#45;&gt;AppModule</title>
<path fill="none" stroke="#000000" d="M1119.4716,-122.1061C1119.4716,-122.1061 1119.4716,-140.991 1119.4716,-140.991"/>
<polygon fill="#000000" stroke="#000000" points="1115.9717,-140.9909 1119.4716,-150.991 1122.9717,-140.991 1115.9717,-140.9909"/>
</g>
<!-- LoggingModule -->
<g id="node11" class="node">
<title>LoggingModule</title>
<polygon fill="#8dd3c7" stroke="#000000" points="1017.493,-122 1014.493,-126 993.493,-126 990.493,-122 910.507,-122 910.507,-86 1017.493,-86 1017.493,-122"/>
<text text-anchor="middle" x="964" y="-99.8" font-family="Times,serif" font-size="14.00" fill="#000000">LoggingModule</text>
</g>
<!-- LoggingModule&#45;&gt;AppModule -->
<g id="edge10" class="edge">
<title>LoggingModule&#45;&gt;AppModule</title>
<path fill="none" stroke="#000000" d="M964,-122.1871C964,-137.1824 964,-156 964,-156 964,-156 1092.252,-156 1092.252,-156"/>
<polygon fill="#000000" stroke="#000000" points="1092.252,-159.5001 1102.252,-156 1092.2519,-152.5001 1092.252,-159.5001"/>
</g>
<!-- LoginModule -->
<g id="node12" class="node">
<title>LoginModule</title>
<polygon fill="#8dd3c7" stroke="#000000" points="892.493,-122 889.493,-126 868.493,-126 865.493,-122 799.507,-122 799.507,-86 892.493,-86 892.493,-122"/>
<text text-anchor="middle" x="846" y="-99.8" font-family="Times,serif" font-size="14.00" fill="#000000">LoginModule</text>
</g>
<!-- LoginModule&#45;&gt;AppModule -->
<g id="edge11" class="edge">
<title>LoginModule&#45;&gt;AppModule</title>
<path fill="none" stroke="#000000" d="M846,-122.027C846,-138.3976 846,-160 846,-160 846,-160 1092.2506,-160 1092.2506,-160"/>
<polygon fill="#000000" stroke="#000000" points="1092.2506,-163.5001 1102.2506,-160 1092.2506,-156.5001 1092.2506,-163.5001"/>
</g>
<!-- NavigationModule -->
<g id="node13" class="node">
<title>NavigationModule</title>
<polygon fill="#8dd3c7" stroke="#000000" points="781.7576,-122 778.7576,-126 757.7576,-126 754.7576,-122 660.2424,-122 660.2424,-86 781.7576,-86 781.7576,-122"/>
<text text-anchor="middle" x="721" y="-99.8" font-family="Times,serif" font-size="14.00" fill="#000000">NavigationModule</text>
</g>
<!-- NavigationModule&#45;&gt;AppModule -->
<g id="edge12" class="edge">
<title>NavigationModule&#45;&gt;AppModule</title>
<path fill="none" stroke="#000000" d="M721,-122.302C721,-140.2699 721,-165 721,-165 721,-165 1092.2835,-165 1092.2835,-165"/>
<polygon fill="#000000" stroke="#000000" points="1092.2835,-168.5001 1102.2835,-165 1092.2834,-161.5001 1092.2835,-168.5001"/>
</g>
<!-- PrivacyPolicyModule -->
<g id="node14" class="node">
<title>PrivacyPolicyModule</title>
<polygon fill="#8dd3c7" stroke="#000000" points="642.0912,-122 639.0912,-126 618.0912,-126 615.0912,-122 503.9088,-122 503.9088,-86 642.0912,-86 642.0912,-122"/>
<text text-anchor="middle" x="573" y="-99.8" font-family="Times,serif" font-size="14.00" fill="#000000">PrivacyPolicyModule</text>
</g>
<!-- PrivacyPolicyModule&#45;&gt;AppModule -->
<g id="edge13" class="edge">
<title>PrivacyPolicyModule&#45;&gt;AppModule</title>
<path fill="none" stroke="#000000" d="M573,-122.1061C573,-141.3391 573,-169 573,-169 573,-169 1092.013,-169 1092.013,-169"/>
<polygon fill="#000000" stroke="#000000" points="1092.013,-172.5001 1102.013,-169 1092.013,-165.5001 1092.013,-172.5001"/>
</g>
<!-- ToastMessageModule -->
<g id="node15" class="node">
<title>ToastMessageModule</title>
<polygon fill="#8dd3c7" stroke="#000000" points="485.6303,-122 482.6303,-126 461.6303,-126 458.6303,-122 346.3697,-122 346.3697,-86 485.6303,-86 485.6303,-122"/>
<text text-anchor="middle" x="416" y="-99.8" font-family="Times,serif" font-size="14.00" fill="#000000">ToastMessageModule</text>
</g>
<!-- ToastMessageModule&#45;&gt;AppModule -->
<g id="edge14" class="edge">
<title>ToastMessageModule&#45;&gt;AppModule</title>
<path fill="none" stroke="#000000" d="M416,-122.0267C416,-142.7672 416,-174 416,-174 416,-174 1092.2448,-174 1092.2448,-174"/>
<polygon fill="#000000" stroke="#000000" points="1092.2448,-177.5001 1102.2448,-174 1092.2448,-170.5001 1092.2448,-177.5001"/>
</g>
<!-- UsersettingsModule -->
<g id="node16" class="node">
<title>UsersettingsModule</title>
<polygon fill="#8dd3c7" stroke="#000000" points="328.252,-122 325.252,-126 304.252,-126 301.252,-122 199.748,-122 199.748,-86 328.252,-86 328.252,-122"/>
<text text-anchor="middle" x="264" y="-99.8" font-family="Times,serif" font-size="14.00" fill="#000000">UsersettingsModule</text>
</g>
<!-- UsersettingsModule&#45;&gt;AppModule -->
<g id="edge15" class="edge">
<title>UsersettingsModule&#45;&gt;AppModule</title>
<path fill="none" stroke="#000000" d="M264,-122.2921C264,-144.2057 264,-178 264,-178 264,-178 1092.1478,-178 1092.1478,-178"/>
<polygon fill="#000000" stroke="#000000" points="1092.1478,-181.5001 1102.1478,-178 1092.1477,-174.5001 1092.1478,-181.5001"/>
</g>
<!-- LanguageConfig -->
<g id="node18" class="node">
<title>LanguageConfig</title>
<ellipse fill="#fdb462" stroke="#000000" cx="100" cy="-104" rx="75.8682" ry="18"/>
<text text-anchor="middle" x="100" y="-99.8" font-family="Times,serif" font-size="14.00" fill="#000000">LanguageConfig</text>
</g>
<!-- LanguageConfig&#45;&gt;AppModule -->
<g id="edge17" class="edge">
<title>LanguageConfig&#45;&gt;AppModule</title>
<path fill="none" stroke="#000000" d="M100,-122.3228C100,-145.6602 100,-183 100,-183 100,-183 1092.1059,-183 1092.1059,-183"/>
<polygon fill="#000000" stroke="#000000" points="1092.1059,-186.5001 1102.1059,-183 1092.1059,-179.5001 1092.1059,-186.5001"/>
</g>
</g>
</svg>
